<svg width="251" height="50" viewBox="0 0 251 50" fill="none" xmlns="http://www.w3.org/2000/svg">
<circle cx="126" cy="25" r="24.5" stroke="#292929"/>
<path d="M127.102 33.1484C127.023 33.2734 126.914 33.375 126.773 33.4531C126.633 33.5469 126.5 33.625 126.375 33.6875C126.219 33.75 126.055 33.8125 125.883 33.875C125.758 33.9062 125.609 33.9375 125.438 33.9688C125.297 34 125.133 34.0312 124.945 34.0625C124.758 34.0938 124.547 34.1172 124.312 34.1328C124.391 32.8359 124.461 31.6094 124.523 30.4531C124.586 29.2812 124.633 28.25 124.664 27.3594C124.711 26.3125 124.75 25.3359 124.781 24.4297C124.844 23.3047 124.875 22.3984 124.875 21.7109C124.891 21.0234 124.898 20.4766 124.898 20.0703C124.648 20.0234 124.406 19.9375 124.172 19.8125C123.938 19.6875 123.703 19.4844 123.469 19.2031C123.516 19 123.602 18.7891 123.727 18.5703C123.867 18.3359 124.008 18.125 124.148 17.9375C124.32 17.7188 124.492 17.5078 124.664 17.3047C124.914 17.0391 125.141 16.8438 125.344 16.7188C125.547 16.5781 125.734 16.4844 125.906 16.4375C126.094 16.375 126.273 16.3516 126.445 16.3672C126.633 16.3672 126.828 16.375 127.031 16.3906C127 17.6094 126.977 18.7422 126.961 19.7891C126.945 20.8203 126.93 21.7344 126.914 22.5312C126.898 23.4531 126.891 24.3047 126.891 25.0859C126.891 26.0859 126.898 27.0703 126.914 28.0391C126.93 28.8828 126.945 29.7656 126.961 30.6875C126.992 31.6094 127.039 32.4297 127.102 33.1484Z" fill="#292929"/>
<line x1="151" y1="24.5" x2="251" y2="24.5" stroke="#292929"/>
<line y1="24.5" x2="100" y2="24.5" stroke="#292929"/>
</svg>
