<svg width="250" height="50" viewBox="0 0 250 50" fill="none" xmlns="http://www.w3.org/2000/svg">
<circle cx="125" cy="25" r="24.5" stroke="#292929"/>
<line x1="150" y1="24.5" x2="250" y2="24.5" stroke="#292929"/>
<line y1="24.5" x2="100" y2="24.5" stroke="#292929"/>
<path d="M129.539 32.2578C129.539 32.4453 129.547 32.625 129.562 32.7969C129.562 32.9531 129.562 33.125 129.562 33.3125C129.578 33.5 129.57 33.6875 129.539 33.875C129.32 33.7031 129.055 33.5625 128.742 33.4531C128.445 33.3594 128 33.2969 127.406 33.2656C126.469 33.2188 125.531 33.2812 124.594 33.4531C123.672 33.625 122.828 33.8281 122.062 34.0625C121.906 34.1094 121.75 34.0859 121.594 33.9922C121.438 33.9141 121.281 33.7812 121.125 33.5938C120.984 33.4219 120.852 33.2188 120.727 32.9844C120.617 32.75 120.531 32.5078 120.469 32.2578C120.406 32.0078 120.367 31.7266 120.352 31.4141C120.336 31.1016 120.359 30.7734 120.422 30.4297C120.5 30.0703 120.641 29.7031 120.844 29.3281C121.047 28.9531 121.336 28.5781 121.711 28.2031C122.055 27.875 122.539 27.5 123.164 27.0781C123.805 26.6406 124.438 26.1484 125.062 25.6016C125.703 25.0547 126.258 24.4453 126.727 23.7734C127.195 23.1016 127.445 22.3516 127.477 21.5234C127.539 20.3359 127.383 19.4531 127.008 18.875C126.633 18.2812 126.148 17.9609 125.555 17.9141C124.758 17.8516 124.102 18.1484 123.586 18.8047C123.086 19.4609 122.688 20.4375 122.391 21.7344C122.312 21.7812 122.195 21.7812 122.039 21.7344C121.883 21.6875 121.734 21.625 121.594 21.5469C121.422 21.4688 121.242 21.3594 121.055 21.2188C120.883 21.0938 120.734 20.9297 120.609 20.7266C120.5 20.5078 120.453 20.2891 120.469 20.0703C120.484 19.7891 120.602 19.4141 120.82 18.9453C121.039 18.4766 121.367 18.0312 121.805 17.6094C122.258 17.1719 122.82 16.8125 123.492 16.5312C124.18 16.2344 125 16.125 125.953 16.2031C126.484 16.25 126.984 16.4062 127.453 16.6719C127.922 16.9219 128.328 17.2812 128.672 17.75C129.016 18.2188 129.281 18.7891 129.469 19.4609C129.656 20.1172 129.727 20.875 129.68 21.7344C129.633 22.6406 129.398 23.4531 128.977 24.1719C128.57 24.875 128.102 25.4922 127.57 26.0234C127.055 26.5547 126.539 27 126.023 27.3594C125.508 27.7188 125.117 28 124.852 28.2031C124.523 28.4531 124.211 28.6953 123.914 28.9297C123.617 29.1484 123.367 29.3984 123.164 29.6797C122.977 29.9453 122.852 30.2422 122.789 30.5703C122.727 30.8984 122.758 31.2812 122.883 31.7188C123.258 31.5781 123.75 31.4297 124.359 31.2734C124.984 31.1016 125.68 30.9844 126.445 30.9219C127.008 30.8906 127.477 30.8828 127.852 30.8984C128.227 30.8984 128.531 30.9453 128.766 31.0391C129 31.1172 129.172 31.2578 129.281 31.4609C129.406 31.6484 129.492 31.9141 129.539 32.2578Z" fill="#292929"/>
</svg>
