<svg width="250" height="50" viewBox="0 0 250 50" fill="none" xmlns="http://www.w3.org/2000/svg">
<circle cx="125" cy="25" r="24.5" stroke="#292929"/>
<path d="M125.961 23.9844C126.414 23.9844 126.859 24.1094 127.297 24.3594C127.734 24.5938 128.125 24.9297 128.469 25.3672C128.812 25.7891 129.078 26.2969 129.266 26.8906C129.453 27.4844 129.523 28.1328 129.477 28.8359C129.414 29.7266 129.188 30.5 128.797 31.1562C128.422 31.8125 127.969 32.3516 127.438 32.7734C126.906 33.2109 126.344 33.5312 125.75 33.7344C125.156 33.9375 124.625 34.0391 124.156 34.0391C123.844 34.0391 123.445 33.9844 122.961 33.875C122.492 33.7812 122.016 33.5938 121.531 33.3125C121.062 33.0469 120.633 32.6797 120.242 32.2109C119.867 31.7422 119.625 31.1406 119.516 30.4062C119.469 30.1719 119.484 29.9219 119.562 29.6562C119.641 29.375 119.75 29.1172 119.891 28.8828C120.047 28.6328 120.234 28.4219 120.453 28.25C120.672 28.0625 120.906 27.9531 121.156 27.9219C121.234 28.8906 121.438 29.6406 121.766 30.1719C122.109 30.7031 122.469 31.0938 122.844 31.3438C123.281 31.625 123.766 31.7969 124.297 31.8594C125.266 31.875 126 31.5859 126.5 30.9922C127 30.3984 127.25 29.6094 127.25 28.625C127.25 28.2188 127.172 27.8359 127.016 27.4766C126.875 27.1172 126.68 26.8125 126.43 26.5625C126.195 26.2969 125.93 26.0859 125.633 25.9297C125.336 25.7734 125.031 25.6953 124.719 25.6953C124.438 25.6953 124.164 25.7188 123.898 25.7656C123.68 25.7969 123.453 25.8516 123.219 25.9297C123 26.0078 122.82 26.125 122.68 26.2812L121.766 24.125C122.062 24 122.375 23.7969 122.703 23.5156C123.047 23.2188 123.359 22.9297 123.641 22.6484C123.969 22.3203 124.289 21.9688 124.602 21.5938C125.055 21.0156 125.438 20.4922 125.75 20.0234C126.062 19.5391 126.305 19.1562 126.477 18.875C126.242 18.7969 125.93 18.7266 125.539 18.6641C125.164 18.5859 124.711 18.5625 124.18 18.5938C123.742 18.625 123.281 18.6719 122.797 18.7344C122.391 18.7969 121.938 18.8828 121.438 18.9922C120.938 19.1016 120.453 19.25 119.984 19.4375C119.891 19.0938 119.805 18.7578 119.727 18.4297C119.648 18.0859 119.609 17.7812 119.609 17.5156C119.625 17.25 119.703 17.0234 119.844 16.8359C120 16.6328 120.266 16.4922 120.641 16.4141C121 16.3516 121.43 16.3047 121.93 16.2734C122.43 16.2266 122.953 16.2031 123.5 16.2031C124.047 16.2031 124.586 16.2188 125.117 16.25C125.664 16.2656 126.156 16.2969 126.594 16.3438C127.141 16.4062 127.625 16.4375 128.047 16.4375C128.469 16.4219 128.719 16.3984 128.797 16.3672C128.938 16.8047 129.023 17.1953 129.055 17.5391C129.086 17.8828 129.094 18.1719 129.078 18.4062C129.047 18.6875 129 18.9375 128.938 19.1562C128.844 19.375 128.625 19.7109 128.281 20.1641C127.938 20.6172 127.555 21.0938 127.133 21.5938C126.711 22.0781 126.297 22.5469 125.891 23C125.5 23.4531 125.203 23.7969 125 24.0312C125.297 23.9844 125.617 23.9688 125.961 23.9844Z" fill="#292929"/>
<line x1="150" y1="24.5" x2="250" y2="24.5" stroke="#292929"/>
<line y1="24.5" x2="100" y2="24.5" stroke="#292929"/>
</svg>
