<svg width="50" height="50" viewBox="0 0 50 50" fill="none" xmlns="http://www.w3.org/2000/svg">
<circle cx="25" cy="25" r="24" stroke="#292929" stroke-width="2"/>
<path d="M25.9609 23.9844C26.4141 23.9844 26.8594 24.1094 27.2969 24.3594C27.7344 24.5938 28.125 24.9297 28.4688 25.3672C28.8125 25.7891 29.0781 26.2969 29.2656 26.8906C29.4531 27.4844 29.5234 28.1328 29.4766 28.8359C29.4141 29.7266 29.1875 30.5 28.7969 31.1562C28.4219 31.8125 27.9688 32.3516 27.4375 32.7734C26.9062 33.2109 26.3438 33.5312 25.75 33.7344C25.1562 33.9375 24.625 34.0391 24.1562 34.0391C23.8438 34.0391 23.4453 33.9844 22.9609 33.875C22.4922 33.7812 22.0156 33.5938 21.5312 33.3125C21.0625 33.0469 20.6328 32.6797 20.2422 32.2109C19.8672 31.7422 19.625 31.1406 19.5156 30.4062C19.4688 30.1719 19.4844 29.9219 19.5625 29.6562C19.6406 29.375 19.75 29.1172 19.8906 28.8828C20.0469 28.6328 20.2344 28.4219 20.4531 28.25C20.6719 28.0625 20.9062 27.9531 21.1562 27.9219C21.2344 28.8906 21.4375 29.6406 21.7656 30.1719C22.1094 30.7031 22.4688 31.0938 22.8438 31.3438C23.2812 31.625 23.7656 31.7969 24.2969 31.8594C25.2656 31.875 26 31.5859 26.5 30.9922C27 30.3984 27.25 29.6094 27.25 28.625C27.25 28.2188 27.1719 27.8359 27.0156 27.4766C26.875 27.1172 26.6797 26.8125 26.4297 26.5625C26.1953 26.2969 25.9297 26.0859 25.6328 25.9297C25.3359 25.7734 25.0312 25.6953 24.7188 25.6953C24.4375 25.6953 24.1641 25.7188 23.8984 25.7656C23.6797 25.7969 23.4531 25.8516 23.2188 25.9297C23 26.0078 22.8203 26.125 22.6797 26.2812L21.7656 24.125C22.0625 24 22.375 23.7969 22.7031 23.5156C23.0469 23.2188 23.3594 22.9297 23.6406 22.6484C23.9688 22.3203 24.2891 21.9688 24.6016 21.5938C25.0547 21.0156 25.4375 20.4922 25.75 20.0234C26.0625 19.5391 26.3047 19.1562 26.4766 18.875C26.2422 18.7969 25.9297 18.7266 25.5391 18.6641C25.1641 18.5859 24.7109 18.5625 24.1797 18.5938C23.7422 18.625 23.2812 18.6719 22.7969 18.7344C22.3906 18.7969 21.9375 18.8828 21.4375 18.9922C20.9375 19.1016 20.4531 19.25 19.9844 19.4375C19.8906 19.0938 19.8047 18.7578 19.7266 18.4297C19.6484 18.0859 19.6094 17.7812 19.6094 17.5156C19.625 17.25 19.7031 17.0234 19.8438 16.8359C20 16.6328 20.2656 16.4922 20.6406 16.4141C21 16.3516 21.4297 16.3047 21.9297 16.2734C22.4297 16.2266 22.9531 16.2031 23.5 16.2031C24.0469 16.2031 24.5859 16.2188 25.1172 16.25C25.6641 16.2656 26.1562 16.2969 26.5938 16.3438C27.1406 16.4062 27.625 16.4375 28.0469 16.4375C28.4688 16.4219 28.7188 16.3984 28.7969 16.3672C28.9375 16.8047 29.0234 17.1953 29.0547 17.5391C29.0859 17.8828 29.0938 18.1719 29.0781 18.4062C29.0469 18.6875 29 18.9375 28.9375 19.1562C28.8438 19.375 28.625 19.7109 28.2812 20.1641C27.9375 20.6172 27.5547 21.0938 27.1328 21.5938C26.7109 22.0781 26.2969 22.5469 25.8906 23C25.5 23.4531 25.2031 23.7969 25 24.0312C25.2969 23.9844 25.6172 23.9688 25.9609 23.9844Z" fill="#292929"/>
</svg>
