<svg width="18" height="20" viewBox="0 0 18 20" fill="none" xmlns="http://www.w3.org/2000/svg">
<path d="M15.8571 19H2.14286C1.51168 19 1 18.5523 1 18L1 2C1 1.44772 1.51167 1 2.14286 1L10.7864 1C11.1047 1 11.4087 1.11619 11.625 1.32059L16.6957 6.11246C16.8913 6.29731 17 6.53995 17 6.79187L17 18C17 18.5523 16.4883 19 15.8571 19Z" stroke="#06B6D4" stroke-width="2" stroke-linecap="round" stroke-linejoin="round"/>
<path d="M5.57129 15H12.4284" stroke="#06B6D4" stroke-width="2" stroke-linecap="round" stroke-linejoin="round"/>
<path d="M5.57129 12H12.4284" stroke="#06B6D4" stroke-width="2" stroke-linecap="round" stroke-linejoin="round"/>
<path d="M16.9997 7L11.2854 7C10.6543 7 10.1426 6.55228 10.1426 6L10.1426 1" stroke="#06B6D4" stroke-width="2" stroke-linecap="round" stroke-linejoin="round"/>
</svg>
