<svg width="18" height="20" viewBox="0 0 18 20" fill="none" xmlns="http://www.w3.org/2000/svg">
<path d="M12 15H6V16C6 17.6569 7.34315 19 9 19C10.6569 19 12 17.6569 12 16V15Z" stroke="black" stroke-width="2" stroke-linecap="round" stroke-linejoin="round"/>
<path d="M2 15H16C16.5523 15 17 14.5523 17 14V13.4142C17 13.149 16.8946 12.8947 16.7071 12.7071L16.1963 12.1963C16.0706 12.0706 16 11.9001 16 11.7224V8C16 4.134 12.866 0.999991 8.99998 1C5.134 1.00001 2 4.13401 2 8V11.7224C2 11.9002 1.9294 12.0706 1.80372 12.1963L1.29289 12.7071C1.10536 12.8947 1 13.149 1 13.4142V14C1 14.5523 1.44772 15 2 15Z" stroke="black" stroke-width="2" stroke-linecap="round" stroke-linejoin="round"/>
</svg>
