<svg width="50" height="53" viewBox="0 0 50 53" fill="none" xmlns="http://www.w3.org/2000/svg">
<rect x="23.7251" y="26.5612" width="29.0317" height="2.00317" transform="rotate(-135 23.7251 26.5612)" fill="#292929" stroke="#292929"/>
<rect x="2.12357" y="5.02507" width="2.00317" height="2.00317" transform="rotate(-135 2.12357 5.02507)" stroke="#292929"/>
<path d="M26.0744 27.814L25.2604 27.5104L25.9304 26.9573L26.0744 27.814Z" stroke="#292929"/>
<rect x="10.896" y="3.47021" width="38.604" height="48.505" stroke="#292929"/>
<rect x="14.3614" y="9.90601" width="1.47525" height="1.47525" stroke="#292929"/>
<rect x="20.302" y="9.90601" width="1.47525" height="1.47525" stroke="#292929"/>
<rect x="26.2426" y="9.90601" width="1.47525" height="1.47525" stroke="#292929"/>
<rect x="32.1832" y="9.90601" width="1.47525" height="1.47525" stroke="#292929"/>
<rect x="14.3614" y="36.1436" width="1.47525" height="1.47525" stroke="#292929"/>
<rect x="20.302" y="36.1436" width="1.47525" height="1.47525" stroke="#292929"/>
<rect x="14.8564" y="47.0347" width="8.40594" height="1.47525" stroke="#292929"/>
<rect x="36.6386" y="47.0347" width="8.40594" height="1.47525" stroke="#292929"/>
<rect x="26.2426" y="36.1436" width="1.47525" height="1.47525" stroke="#292929"/>
<rect x="32.1832" y="36.1436" width="1.47525" height="1.47525" stroke="#292929"/>
<rect x="38.1238" y="9.90601" width="1.47525" height="1.47525" stroke="#292929"/>
<rect x="44.0644" y="9.90601" width="1.47525" height="1.47525" stroke="#292929"/>
<rect x="14.3564" width="1.48515" height="4.9505" fill="#292929"/>
<rect x="20.297" width="1.48515" height="4.9505" fill="#292929"/>
<rect x="26.2376" width="1.48515" height="4.9505" fill="#292929"/>
<rect x="32.1782" width="1.48515" height="4.9505" fill="#292929"/>
<rect x="38.1188" width="1.48515" height="4.9505" fill="#292929"/>
<rect x="44.0594" width="1.48515" height="4.9505" fill="#292929"/>
<rect x="14.3614" y="15.8464" width="1.47525" height="1.47525" stroke="#292929"/>
<rect x="20.302" y="15.8464" width="1.47525" height="1.47525" stroke="#292929"/>
<rect x="26.2426" y="15.8464" width="1.47525" height="1.47525" stroke="#292929"/>
<rect x="32.1832" y="15.8464" width="1.47525" height="1.47525" stroke="#292929"/>
<rect x="38.1238" y="15.8464" width="1.47525" height="1.47525" stroke="#292929"/>
<rect x="44.0644" y="15.8464" width="1.47525" height="1.47525" stroke="#292929"/>
<rect x="14.3614" y="20.7971" width="1.47525" height="1.47525" stroke="#292929"/>
<rect x="20.302" y="20.7971" width="1.47525" height="1.47525" stroke="#292929"/>
<rect x="26.2426" y="20.7971" width="1.47525" height="1.47525" stroke="#292929"/>
<rect x="32.1832" y="20.7971" width="1.47525" height="1.47525" stroke="#292929"/>
<rect x="38.1238" y="20.7971" width="1.47525" height="1.47525" stroke="#292929"/>
<rect x="44.0644" y="20.7971" width="1.47525" height="1.47525" stroke="#292929"/>
<rect x="14.3614" y="25.7476" width="1.47525" height="1.47525" stroke="#292929"/>
<rect x="20.302" y="25.7476" width="1.47525" height="1.47525" stroke="#292929"/>
<rect x="26.2426" y="25.7476" width="1.47525" height="1.47525" stroke="#292929"/>
<rect x="32.1832" y="25.7476" width="1.47525" height="1.47525" stroke="#292929"/>
<rect x="38.1238" y="25.7476" width="1.47525" height="1.47525" stroke="#292929"/>
<rect x="44.0644" y="25.7476" width="1.47525" height="1.47525" stroke="#292929"/>
<rect x="14.3614" y="31.1931" width="1.47525" height="1.47525" stroke="#292929"/>
<rect x="20.302" y="31.1931" width="1.47525" height="1.47525" stroke="#292929"/>
<rect x="26.2426" y="31.1931" width="1.47525" height="1.47525" stroke="#292929"/>
<rect x="32.1832" y="31.1931" width="1.47525" height="1.47525" stroke="#292929"/>
<rect x="38.1238" y="31.1931" width="1.47525" height="1.47525" stroke="#292929"/>
<rect x="44.0644" y="31.1931" width="1.47525" height="1.47525" stroke="#292929"/>
<line x1="10.396" y1="1.97534" x2="50" y2="1.97534" stroke="#292929"/>
</svg>
