<svg width="18" height="18" viewBox="0 0 18 18" fill="none" xmlns="http://www.w3.org/2000/svg">
<path d="M9 18C13.9706 18 18 13.9706 18 9C18 4.02944 13.9706 0 9 0C4.02944 0 0 4.02944 0 9C0 13.9706 4.02944 18 9 18Z" fill="black"/>
<path d="M14.2165 16.3323C12.9348 14.9008 11.0725 14 8.99984 14C6.92718 14 5.06492 14.9008 3.7832 16.3323" stroke="white" stroke-width="2" stroke-linecap="round" stroke-linejoin="round"/>
<path d="M9 11C10.6569 11 12 9.65685 12 8C12 6.34315 10.6569 5 9 5C7.34315 5 6 6.34315 6 8C6 9.65685 7.34315 11 9 11Z" fill="white"/>
</svg>
