<svg width="80" height="69" viewBox="0 0 80 69" fill="none" xmlns="http://www.w3.org/2000/svg">
<rect x="0.5" y="62.6816" width="43.7552" height="5.71329" rx="2.85664" fill="#585858" stroke="white"/>
<rect x="18.9615" y="52.1714" width="26.972" height="6.27273" transform="rotate(-90 18.9615 52.1714)" fill="#585858" stroke="white"/>
<rect x="9.45105" y="53.1714" width="25.8531" height="6.27273" fill="#585858" stroke="white"/>
<circle cx="44.7553" cy="48.7551" r="3.35664" fill="#585858"/>
<circle cx="67.6923" cy="48.7551" r="3.35664" fill="#585858"/>
<path d="M21.9343 30.8532C20.8972 21.0799 26.3591 3.93544 56.5034 13.5439" stroke="#585858" stroke-width="8"/>
<path d="M62.0979 15.1888L67.639 4H80" stroke="#585858" stroke-width="8"/>
<rect x="39.6609" y="11.2134" width="33.6853" height="34.2448" fill="#585858" stroke="white"/>
<path d="M47.9183 30.9019H43.5326V30.0317L45.6024 27.8257C45.8866 27.5151 46.096 27.2441 46.2308 27.0127C46.3685 26.7812 46.4373 26.5615 46.4373 26.3535C46.4373 26.0693 46.3656 25.8467 46.222 25.6855C46.0785 25.5215 45.8734 25.4395 45.6068 25.4395C45.3197 25.4395 45.0926 25.5391 44.9256 25.7383C44.7616 25.9346 44.6795 26.1938 44.6795 26.5161H43.4051C43.4051 26.1265 43.4974 25.7705 43.682 25.4482C43.8695 25.126 44.1331 24.874 44.473 24.6924C44.8128 24.5078 45.1981 24.4155 45.6288 24.4155C46.2879 24.4155 46.7992 24.5737 47.1624 24.8901C47.5287 25.2065 47.7118 25.6533 47.7118 26.2305C47.7118 26.5469 47.6297 26.8691 47.4657 27.1973C47.3016 27.5254 47.0204 27.9077 46.6219 28.3442L45.1673 29.8779H47.9183V30.9019ZM50.8925 27.1401H51.5693C51.8915 27.1401 52.1303 27.0596 52.2856 26.8984C52.4409 26.7373 52.5185 26.5234 52.5185 26.2568C52.5185 25.999 52.4409 25.7983 52.2856 25.6548C52.1332 25.5112 51.9223 25.4395 51.6528 25.4395C51.4096 25.4395 51.206 25.5068 51.0419 25.6416C50.8779 25.7734 50.7958 25.9463 50.7958 26.1602H49.5258C49.5258 25.8262 49.6152 25.5273 49.7939 25.2637C49.9755 24.9971 50.2275 24.7891 50.5498 24.6396C50.8749 24.4902 51.2324 24.4155 51.622 24.4155C52.2988 24.4155 52.829 24.5781 53.2128 24.9033C53.5966 25.2256 53.7885 25.6709 53.7885 26.2393C53.7885 26.5322 53.6992 26.8018 53.5205 27.0479C53.3417 27.2939 53.1074 27.4829 52.8173 27.6147C53.1777 27.7437 53.4457 27.937 53.6215 28.1948C53.8002 28.4526 53.8896 28.7573 53.8896 29.1089C53.8896 29.6772 53.6816 30.1328 53.2656 30.4756C52.8525 30.8184 52.3046 30.9897 51.622 30.9897C50.9833 30.9897 50.4604 30.8213 50.0532 30.4844C49.6489 30.1475 49.4467 29.7021 49.4467 29.1484H50.7167C50.7167 29.3887 50.8061 29.585 50.9848 29.7373C51.1665 29.8896 51.3891 29.9658 51.6528 29.9658C51.9545 29.9658 52.1904 29.8867 52.3603 29.7285C52.5331 29.5674 52.6196 29.355 52.6196 29.0913C52.6196 28.4526 52.268 28.1333 51.5649 28.1333H50.8925V27.1401ZM55.7828 30.2778C55.7828 30.0757 55.8501 29.9116 55.9849 29.7856C56.1226 29.6597 56.294 29.5967 56.4991 29.5967C56.7071 29.5967 56.8785 29.6597 57.0132 29.7856C57.1509 29.9116 57.2198 30.0757 57.2198 30.2778C57.2198 30.4771 57.1524 30.6396 57.0176 30.7656C56.8829 30.8887 56.71 30.9502 56.4991 30.9502C56.2911 30.9502 56.1197 30.8887 55.9849 30.7656C55.8501 30.6396 55.7828 30.4771 55.7828 30.2778ZM55.7828 26.6787C55.7828 26.4766 55.8501 26.3125 55.9849 26.1865C56.1226 26.0605 56.294 25.9976 56.4991 25.9976C56.7071 25.9976 56.8785 26.0605 57.0132 26.1865C57.1509 26.3125 57.2198 26.4766 57.2198 26.6787C57.2198 26.8779 57.1524 27.0405 57.0176 27.1665C56.8829 27.2896 56.71 27.3511 56.4991 27.3511C56.2911 27.3511 56.1197 27.2896 55.9849 27.1665C55.8501 27.0405 55.7828 26.8779 55.7828 26.6787ZM63.4152 28.2563C63.4152 29.1411 63.2321 29.8179 62.8659 30.2866C62.4997 30.7554 61.9635 30.9897 61.2575 30.9897C60.5602 30.9897 60.027 30.7598 59.6579 30.2998C59.2887 29.8398 59.0998 29.1807 59.091 28.3223V27.1445C59.091 26.251 59.2755 25.5728 59.6447 25.1099C60.0167 24.647 60.5514 24.4155 61.2487 24.4155C61.9459 24.4155 62.4791 24.6455 62.8483 25.1055C63.2174 25.5625 63.4064 26.2202 63.4152 27.0786V28.2563ZM62.1452 26.9644C62.1452 26.4341 62.0719 26.0488 61.9254 25.8086C61.7819 25.5654 61.5563 25.4438 61.2487 25.4438C60.9498 25.4438 60.7287 25.5596 60.5851 25.791C60.4445 26.0195 60.3698 26.3784 60.361 26.8677V28.4233C60.361 28.9448 60.4313 29.333 60.5719 29.5879C60.7155 29.8398 60.944 29.9658 61.2575 29.9658C61.568 29.9658 61.7921 29.8442 61.9298 29.6011C62.0675 29.3579 62.1393 28.9858 62.1452 28.4849V26.9644ZM65.3655 27.7554L65.7346 24.5034H69.3206V25.5625H66.7761L66.6179 26.938C66.9197 26.7769 67.2405 26.6963 67.5803 26.6963C68.1897 26.6963 68.6672 26.8853 69.0129 27.2632C69.3586 27.6411 69.5315 28.1699 69.5315 28.8496C69.5315 29.2627 69.4436 29.6333 69.2678 29.9614C69.095 30.2866 68.8459 30.54 68.5207 30.7217C68.1956 30.9004 67.8118 30.9897 67.3694 30.9897C66.9827 30.9897 66.6238 30.9121 66.2927 30.7568C65.9617 30.5986 65.6995 30.3774 65.5061 30.0933C65.3157 29.8091 65.2146 29.4854 65.2029 29.1221H66.4597C66.4861 29.3887 66.5784 29.5967 66.7366 29.7461C66.8977 29.8926 67.1072 29.9658 67.365 29.9658C67.6521 29.9658 67.8733 29.8633 68.0286 29.6582C68.1838 29.4502 68.2615 29.1572 68.2615 28.7793C68.2615 28.416 68.1721 28.1377 67.9934 27.9443C67.8147 27.751 67.5613 27.6543 67.2332 27.6543C66.9314 27.6543 66.6868 27.7334 66.4993 27.8916L66.3762 28.0059L65.3655 27.7554Z" fill="white"/>
</svg>
