<svg width="57" height="64" viewBox="0 0 57 64" fill="none" xmlns="http://www.w3.org/2000/svg">
<mask id="path-1-inside-1_928_53" fill="white">
<path fill-rule="evenodd" clip-rule="evenodd" d="M0 0H48.3517V60.4396H0V0ZM39.865 9.67026L9.67035 10.9027L9.548 7.90519L39.7426 6.67275L39.865 9.67026ZM9.67035 18.7599L39.865 17.5275L39.7426 14.53L9.548 15.7624L9.67035 18.7599ZM39.865 25.3847L9.67035 26.6172L9.548 23.6197L39.7426 22.3872L39.865 25.3847ZM9.67035 34.474L39.865 33.2415L39.7426 30.244L9.548 31.4765L9.67035 34.474Z"/>
</mask>
<path fill-rule="evenodd" clip-rule="evenodd" d="M0 0H48.3517V60.4396H0V0ZM39.865 9.67026L9.67035 10.9027L9.548 7.90519L39.7426 6.67275L39.865 9.67026ZM9.67035 18.7599L39.865 17.5275L39.7426 14.53L9.548 15.7624L9.67035 18.7599ZM39.865 25.3847L9.67035 26.6172L9.548 23.6197L39.7426 22.3872L39.865 25.3847ZM9.67035 34.474L39.865 33.2415L39.7426 30.244L9.548 31.4765L9.67035 34.474Z" fill="#585858"/>
<path d="M48.3517 0H49.3517V-1H48.3517V0ZM0 0V-1H-1V0H0ZM48.3517 60.4396V61.4396H49.3517V60.4396H48.3517ZM0 60.4396H-1V61.4396H0V60.4396ZM9.67035 10.9027L8.67118 10.9435L8.71196 11.9426L9.71113 11.9019L9.67035 10.9027ZM39.865 9.67026L39.9058 10.6694L40.9049 10.6286L40.8642 9.62947L39.865 9.67026ZM9.548 7.90519L9.50722 6.90602L8.50805 6.9468L8.54883 7.94597L9.548 7.90519ZM39.7426 6.67275L40.7418 6.63197L40.701 5.6328L39.7019 5.67358L39.7426 6.67275ZM39.865 17.5275L39.9058 18.5267L40.9049 18.4859L40.8642 17.4867L39.865 17.5275ZM9.67035 18.7599L8.67118 18.8007L8.71196 19.7999L9.71113 19.7591L9.67035 18.7599ZM39.7426 14.53L40.7418 14.4892L40.701 13.49L39.7019 13.5308L39.7426 14.53ZM9.548 15.7624L9.50722 14.7633L8.50805 14.804L8.54883 15.8032L9.548 15.7624ZM9.67035 26.6172L8.67118 26.658L8.71196 27.6571L9.71113 27.6163L9.67035 26.6172ZM39.865 25.3847L39.9058 26.3839L40.9049 26.3431L40.8642 25.344L39.865 25.3847ZM9.548 23.6197L9.50722 22.6205L8.50805 22.6613L8.54883 23.6604L9.548 23.6197ZM39.7426 22.3872L40.7418 22.3464L40.701 21.3473L39.7019 21.3881L39.7426 22.3872ZM39.865 33.2415L39.9058 34.2407L40.9049 34.1999L40.8642 33.2007L39.865 33.2415ZM9.67035 34.474L8.67118 34.5147L8.71196 35.5139L9.71113 35.4731L9.67035 34.474ZM39.7426 30.244L40.7418 30.2032L40.701 29.2041L39.7019 29.2449L39.7426 30.244ZM9.548 31.4765L9.50722 30.4773L8.50805 30.5181L8.54883 31.5172L9.548 31.4765ZM48.3517 -1H0V1H48.3517V-1ZM49.3517 60.4396V0H47.3517V60.4396H49.3517ZM0 61.4396H48.3517V59.4396H0V61.4396ZM-1 0V60.4396H1V0H-1ZM9.71113 11.9019L39.9058 10.6694L39.8242 8.67109L9.62957 9.90352L9.71113 11.9019ZM8.54883 7.94597L8.67118 10.9435L10.6695 10.8619L10.5472 7.8644L8.54883 7.94597ZM39.7019 5.67358L9.50722 6.90602L9.58878 8.90435L39.7834 7.67192L39.7019 5.67358ZM40.8642 9.62947L40.7418 6.63197L38.7435 6.71353L38.8658 9.71104L40.8642 9.62947ZM39.8242 16.5283L9.62957 17.7608L9.71113 19.7591L39.9058 18.5267L39.8242 16.5283ZM38.7435 14.5708L38.8658 17.5683L40.8642 17.4867L40.7418 14.4892L38.7435 14.5708ZM9.58878 16.7616L39.7834 15.5292L39.7019 13.5308L9.50722 14.7633L9.58878 16.7616ZM10.6695 18.7191L10.5472 15.7216L8.54883 15.8032L8.67118 18.8007L10.6695 18.7191ZM9.71113 27.6163L39.9058 26.3839L39.8242 24.3856L9.62957 25.618L9.71113 27.6163ZM8.54883 23.6604L8.67118 26.658L10.6695 26.5764L10.5472 23.5789L8.54883 23.6604ZM39.7019 21.3881L9.50722 22.6205L9.58878 24.6188L39.7834 23.3864L39.7019 21.3881ZM40.8642 25.344L40.7418 22.3464L38.7435 22.428L38.8658 25.4255L40.8642 25.344ZM39.8242 32.2424L9.62957 33.4748L9.71113 35.4731L39.9058 34.2407L39.8242 32.2424ZM38.7435 30.2848L38.8658 33.2823L40.8642 33.2007L40.7418 30.2032L38.7435 30.2848ZM9.58878 32.4756L39.7834 31.2432L39.7019 29.2449L9.50722 30.4773L9.58878 32.4756ZM10.6695 34.4332L10.5472 31.4357L8.54883 31.5172L8.67118 34.5147L10.6695 34.4332Z" fill="white" mask="url(#path-1-inside-1_928_53)"/>
<mask id="path-3-inside-2_928_53" fill="white">
<path fill-rule="evenodd" clip-rule="evenodd" d="M4.23083 3.02197H52.5825V63.4615H4.23083V3.02197ZM44.0958 12.6921L13.9012 13.9245L13.7788 10.927L43.9735 9.6946L44.0958 12.6921ZM13.9012 21.7818L44.0958 20.5493L43.9735 17.5518L13.7788 18.7843L13.9012 21.7818ZM44.0958 28.4066L13.9012 29.639L13.7788 26.6415L43.9735 25.4091L44.0958 28.4066ZM13.9012 37.4963L44.0958 36.2638L43.9735 33.2663L13.7788 34.4988L13.9012 37.4963Z"/>
</mask>
<path fill-rule="evenodd" clip-rule="evenodd" d="M4.23083 3.02197H52.5825V63.4615H4.23083V3.02197ZM44.0958 12.6921L13.9012 13.9245L13.7788 10.927L43.9735 9.6946L44.0958 12.6921ZM13.9012 21.7818L44.0958 20.5493L43.9735 17.5518L13.7788 18.7843L13.9012 21.7818ZM44.0958 28.4066L13.9012 29.639L13.7788 26.6415L43.9735 25.4091L44.0958 28.4066ZM13.9012 37.4963L44.0958 36.2638L43.9735 33.2663L13.7788 34.4988L13.9012 37.4963Z" fill="#585858"/>
<path d="M52.5825 3.02197H53.5825V2.02197H52.5825V3.02197ZM4.23083 3.02197V2.02197H3.23083V3.02197H4.23083ZM52.5825 63.4615V64.4615H53.5825V63.4615H52.5825ZM4.23083 63.4615H3.23083V64.4615H4.23083V63.4615ZM13.9012 13.9245L12.902 13.9653L12.9428 14.9645L13.942 14.9237L13.9012 13.9245ZM44.0958 12.6921L44.1366 13.6913L45.1358 13.6505L45.095 12.6513L44.0958 12.6921ZM13.7788 10.927L13.738 9.92787L12.7389 9.96865L12.7797 10.9678L13.7788 10.927ZM43.9735 9.6946L44.9726 9.65382L44.9318 8.65465L43.9327 8.69543L43.9735 9.6946ZM44.0958 20.5493L44.1366 21.5485L45.1358 21.5077L45.095 20.5086L44.0958 20.5493ZM13.9012 21.7818L12.902 21.8226L12.9428 22.8217L13.942 22.7809L13.9012 21.7818ZM43.9735 17.5518L44.9726 17.5111L44.9318 16.5119L43.9327 16.5527L43.9735 17.5518ZM13.7788 18.7843L13.738 17.7851L12.7389 17.8259L12.7797 18.8251L13.7788 18.7843ZM13.9012 29.639L12.902 29.6798L12.9428 30.679L13.942 30.6382L13.9012 29.639ZM44.0958 28.4066L44.1366 29.4058L45.1358 29.365L45.095 28.3658L44.0958 28.4066ZM13.7788 26.6415L13.738 25.6423L12.7389 25.6831L12.7797 26.6823L13.7788 26.6415ZM43.9735 25.4091L44.9726 25.3683L44.9318 24.3691L43.9327 24.4099L43.9735 25.4091ZM44.0958 36.2638L44.1366 37.263L45.1358 37.2222L45.095 36.223L44.0958 36.2638ZM13.9012 37.4963L12.902 37.537L12.9428 38.5362L13.942 38.4954L13.9012 37.4963ZM43.9735 33.2663L44.9726 33.2255L44.9318 32.2264L43.9327 32.2672L43.9735 33.2663ZM13.7788 34.4988L13.738 33.4996L12.7389 33.5404L12.7797 34.5395L13.7788 34.4988ZM52.5825 2.02197H4.23083V4.02197H52.5825V2.02197ZM53.5825 63.4615V3.02197H51.5825V63.4615H53.5825ZM4.23083 64.4615H52.5825V62.4615H4.23083V64.4615ZM3.23083 3.02197V63.4615H5.23083V3.02197H3.23083ZM13.942 14.9237L44.1366 13.6913L44.055 11.6929L13.8604 12.9254L13.942 14.9237ZM12.7797 10.9678L12.902 13.9653L14.9003 13.8838L14.778 10.8863L12.7797 10.9678ZM43.9327 8.69543L13.738 9.92787L13.8196 11.9262L44.0142 10.6938L43.9327 8.69543ZM45.095 12.6513L44.9726 9.65382L42.9743 9.73539L43.0966 12.7329L45.095 12.6513ZM44.055 19.5502L13.8604 20.7826L13.942 22.7809L44.1366 21.5485L44.055 19.5502ZM42.9743 17.5926L43.0966 20.5901L45.095 20.5086L44.9726 17.5111L42.9743 17.5926ZM13.8196 19.7834L44.0142 18.551L43.9327 16.5527L13.738 17.7851L13.8196 19.7834ZM14.9003 21.741L14.778 18.7435L12.7797 18.8251L12.902 21.8226L14.9003 21.741ZM13.942 30.6382L44.1366 29.4058L44.055 27.4074L13.8604 28.6399L13.942 30.6382ZM12.7797 26.6823L12.902 29.6798L14.9003 29.5982L14.778 26.6007L12.7797 26.6823ZM43.9327 24.4099L13.738 25.6423L13.8196 27.6407L44.0142 26.4082L43.9327 24.4099ZM45.095 28.3658L44.9726 25.3683L42.9743 25.4499L43.0966 28.4474L45.095 28.3658ZM44.055 35.2647L13.8604 36.4971L13.942 38.4954L44.1366 37.263L44.055 35.2647ZM42.9743 33.3071L43.0966 36.3046L45.095 36.223L44.9726 33.2255L42.9743 33.3071ZM13.8196 35.4979L44.0142 34.2655L43.9327 32.2672L13.738 33.4996L13.8196 35.4979ZM14.9003 37.4555L14.778 34.458L12.7797 34.5395L12.902 37.537L14.9003 37.4555Z" fill="white" mask="url(#path-3-inside-2_928_53)"/>
<rect x="29.511" y="44.0166" width="11.0879" height="11.0879" fill="#585858" stroke="white"/>
<path d="M35.0549 46.5383L41.0989 52.5823L55 38.6812" stroke="white" stroke-width="3"/>
</svg>
