<svg width="71" height="83" viewBox="0 0 71 83" fill="none" xmlns="http://www.w3.org/2000/svg">
<path fill-rule="evenodd" clip-rule="evenodd" d="M15.9809 73.1603C14.2575 75.4942 9.44175 76.5658 6.74783 76.8286C6.17244 77.4862 5.81076 78.9494 8.96721 79.5412C12.1237 80.133 17.3515 77.9794 19.5709 76.8286C50.4449 94.5836 66.0545 61.9506 70 43.4147C63.3912 48.6426 51.3819 46.6616 46.2034 45.0176C46.2758 44.883 46.3465 44.7474 46.4156 44.6109C29.0779 45.5093 21.4967 55.4732 19.8032 61.1182L19.1376 59.9201C17.6098 60.696 16.9269 65.5445 16.6978 69.1737C20.9784 67.8791 30.689 63.8734 40.6406 56.4328C43.9286 54.4601 51.1703 50.8844 53.8336 52.364C45.1205 57.5425 27.5957 67.8996 27.2011 67.8996C26.8065 67.8996 19.5566 71.5986 15.9809 73.4481V73.1603ZM18.2474 58.3178L17.9537 57.7892C26.9545 31.1567 34.1058 19.4433 33.8592 20.553C33.6619 21.4407 27.9409 40.4862 25.105 49.898C29.1378 43.5707 38.8397 42.6715 46.9641 43.426C52.509 30.2891 44.1433 9.88007 39.0521 1C40.8276 4.74828 34.1201 11.1105 30.5445 13.8231C6.50957 32.1265 11.7137 50.199 18.2474 58.3178Z" fill="#585858"/>
<path d="M15.9809 73.1603H16.4809V71.6414L15.5787 72.8633L15.9809 73.1603ZM6.74783 76.8286L6.69928 76.331L6.50204 76.3502L6.37154 76.4994L6.74783 76.8286ZM8.96721 79.5412L9.05935 79.0498L9.05935 79.0498L8.96721 79.5412ZM19.5709 76.8286L19.8201 76.3952L19.5833 76.259L19.3407 76.3848L19.5709 76.8286ZM70 43.4147L70.4891 43.5188L70.7779 42.1618L69.6898 43.0226L70 43.4147ZM46.2034 45.0176L45.763 44.7807L45.4774 45.3117L46.0521 45.4942L46.2034 45.0176ZM46.4156 44.6109L46.8617 44.8366L47.2511 44.0669L46.3897 44.1116L46.4156 44.6109ZM19.8032 61.1182L19.3661 61.361L19.9416 62.3969L20.2821 61.2619L19.8032 61.1182ZM19.1376 59.9201L19.5747 59.6773L19.3407 59.2562L18.9112 59.4743L19.1376 59.9201ZM16.6978 69.1737L16.1987 69.1422L16.1534 69.8607L16.8425 69.6523L16.6978 69.1737ZM40.6406 56.4328L40.3834 56.0041L40.3616 56.0172L40.3412 56.0324L40.6406 56.4328ZM53.8336 52.364L54.0891 52.7938L54.8368 52.3494L54.0764 51.9269L53.8336 52.364ZM15.9809 73.4481H15.4809V74.2696L16.2106 73.8922L15.9809 73.4481ZM18.2474 58.3178L17.8579 58.6313L18.6845 58.075L18.2474 58.3178ZM17.9537 57.7892L17.48 57.6291L17.4092 57.8386L17.5166 58.032L17.9537 57.7892ZM33.8592 20.553L33.3711 20.4445L33.3711 20.4445L33.8592 20.553ZM25.105 49.898L24.6263 49.7538L25.5267 50.1668L25.105 49.898ZM46.9641 43.426L46.9179 43.9239L47.2824 43.9577L47.4248 43.6205L46.9641 43.426ZM39.0521 1L39.4858 0.751308L38.6002 1.21404L39.0521 1ZM30.5445 13.8231L30.2423 13.4247L30.2415 13.4253L30.5445 13.8231ZM15.5787 72.8633C14.8122 73.9013 13.3029 74.7121 11.5685 75.2973C9.85521 75.8754 8.01619 76.2025 6.69928 76.331L6.79638 77.3263C8.17339 77.1919 10.0892 76.8518 11.8882 76.2449C13.666 75.645 15.4262 74.7532 16.3832 73.4573L15.5787 72.8633ZM6.37154 76.4994C6.02224 76.8986 5.65561 77.6359 6.00125 78.4128C6.33875 79.1714 7.25866 79.7296 8.87506 80.0326L9.05935 79.0498C7.51932 78.761 7.04183 78.2916 6.91491 78.0063C6.79613 77.7393 6.89804 77.4163 7.12412 77.1579L6.37154 76.4994ZM8.87506 80.0326C10.5797 80.3523 12.7752 79.9287 14.7674 79.3163C16.7788 78.6981 18.6685 77.8598 19.801 77.2725L19.3407 76.3848C18.2539 76.9483 16.4199 77.7622 14.4735 78.3605C12.5078 78.9647 10.5111 79.322 9.05935 79.0498L8.87506 80.0326ZM19.3216 77.2621C27.1149 81.7438 33.9918 83.0711 39.9924 82.1995C45.9908 81.3282 51.0536 78.2684 55.2372 74.0843C63.588 65.7324 68.5063 52.8338 70.4891 43.5188L69.511 43.3106C67.5482 52.5315 62.6889 65.2173 54.53 73.3772C50.4588 77.449 45.5837 80.3768 39.8487 81.2099C34.1159 82.0426 27.4638 80.7909 19.8201 76.3952L19.3216 77.2621ZM69.6898 43.0226C66.5182 45.5315 62.0026 46.3399 57.5706 46.2931C53.1514 46.2465 48.9038 45.3503 46.3547 44.541L46.0521 45.4942C48.6815 46.3289 53.0279 47.2452 57.5601 47.2931C62.0795 47.3408 66.873 46.5258 70.3102 43.8069L69.6898 43.0226ZM46.6437 45.2544C46.7181 45.1161 46.7908 44.9768 46.8617 44.8366L45.9694 44.3852C45.9023 44.518 45.8335 44.6498 45.763 44.7807L46.6437 45.2544ZM46.3897 44.1116C28.8466 45.0206 21.0801 55.1219 19.3243 60.9745L20.2821 61.2619C21.9133 55.8245 29.3092 45.998 46.4415 45.1102L46.3897 44.1116ZM20.2403 60.8754L19.5747 59.6773L18.7005 60.1629L19.3661 61.361L20.2403 60.8754ZM18.9112 59.4743C18.3716 59.7483 17.9827 60.3306 17.689 60.9758C17.3861 61.641 17.1413 62.471 16.9425 63.3688C16.5443 65.1673 16.3141 67.3154 16.1987 69.1422L17.1968 69.2052C17.3106 67.4029 17.5364 65.3121 17.9188 63.585C18.1104 62.7201 18.3371 61.9657 18.5991 61.3901C18.8703 60.7945 19.1397 60.4798 19.364 60.3659L18.9112 59.4743ZM40.3412 56.0324C30.4394 63.4356 20.782 67.4162 16.553 68.6951L16.8425 69.6523C21.1749 68.3421 30.9385 64.3111 40.9401 56.8333L40.3412 56.0324ZM54.0764 51.9269C53.2648 51.476 52.1771 51.4406 51.0402 51.6032C49.8857 51.7683 48.5905 52.1513 47.2962 52.6355C44.7057 53.6046 42.0454 55.0069 40.3834 56.0041L40.8979 56.8616C42.5239 55.886 45.1284 54.5141 47.6466 53.5721C48.9066 53.1007 50.1267 52.744 51.1818 52.5931C52.2546 52.4397 53.0708 52.5122 53.5908 52.8011L54.0764 51.9269ZM27.2011 68.3996C27.3013 68.3996 27.3846 68.3684 27.3957 68.3646C27.4281 68.3533 27.4603 68.3399 27.4885 68.3276C27.546 68.3023 27.6165 68.2681 27.6955 68.228C27.8552 68.1471 28.0737 68.0302 28.3421 67.8827C28.8802 67.5871 29.6343 67.1605 30.5523 66.6342C32.389 65.581 34.8906 64.1236 37.6508 62.5051C43.1716 59.2678 49.732 55.3834 54.0891 52.7938L53.5781 51.9342C49.2221 54.5232 42.6635 58.4065 37.145 61.6424C34.3855 63.2605 31.8873 64.716 30.0549 65.7666C29.1383 66.2922 28.3905 66.7152 27.8606 67.0062C27.5951 67.1521 27.3881 67.2627 27.2434 67.336C27.1703 67.3731 27.1189 67.3977 27.0865 67.4119C27.0697 67.4193 27.0649 67.4208 27.0684 67.4196C27.0702 67.419 27.0799 67.4156 27.0952 67.4119C27.1049 67.4095 27.1456 67.3996 27.2011 67.3996V68.3996ZM16.2106 73.8922C17.9974 72.968 20.7017 71.582 23.0078 70.4274C24.1613 69.8499 25.2125 69.3315 25.9988 68.9581C26.3926 68.7711 26.7157 68.6225 26.9503 68.5213C27.0683 68.4704 27.158 68.4341 27.2204 68.4114C27.252 68.3999 27.2703 68.3942 27.2782 68.392C27.299 68.3862 27.2618 68.3996 27.2011 68.3996V67.3996C27.1158 67.3996 27.0405 67.4202 27.0105 67.4285C26.9676 67.4404 26.9224 67.4557 26.8783 67.4718C26.7894 67.5041 26.6794 67.5491 26.5544 67.603C26.3031 67.7114 25.9671 67.8662 25.5698 68.0548C24.774 68.4328 23.7154 68.9548 22.5601 69.5332C20.2487 70.6904 17.5402 72.0786 15.7512 73.0039L16.2106 73.8922ZM15.4809 73.1603V73.4481H16.4809V73.1603H15.4809ZM18.6845 58.075L18.3908 57.5463L17.5166 58.032L17.8103 58.5606L18.6845 58.075ZM18.4274 57.9492C22.9222 44.6496 26.9532 35.081 29.8266 28.9808C31.2636 25.93 32.4096 23.7499 33.1778 22.4059C33.5637 21.731 33.8482 21.2776 34.023 21.0321C34.0662 20.9714 34.0992 20.9285 34.1226 20.9004C34.1518 20.8652 34.1498 20.873 34.1236 20.8931C34.117 20.8982 34.0555 20.9472 33.9547 20.9697C33.8973 20.9825 33.8055 20.9915 33.7004 20.9574C33.5881 20.921 33.5033 20.8491 33.4487 20.7697C33.359 20.6391 33.3652 20.5118 33.3655 20.4985C33.366 20.4793 33.3677 20.4651 33.3688 20.4578C33.3699 20.4501 33.3709 20.4454 33.3711 20.4445L34.3473 20.6615C34.3546 20.6286 34.3639 20.579 34.3652 20.5222C34.3661 20.4868 34.3693 20.3436 34.273 20.2035C34.2151 20.1193 34.1261 20.0442 34.0088 20.0061C33.8987 19.9704 33.8009 19.9794 33.7367 19.9937C33.6223 20.0192 33.5438 20.0776 33.5166 20.0983C33.4494 20.1497 33.3926 20.2142 33.3536 20.2611C33.3088 20.315 33.2601 20.3796 33.2085 20.452C33.0043 20.7387 32.7003 21.2264 32.3097 21.9097C31.5251 23.2821 30.367 25.4868 28.9219 28.5547C26.0311 34.6919 21.986 44.2962 17.48 57.6291L18.4274 57.9492ZM33.3711 20.4445C33.2777 20.8651 31.8077 25.8178 29.9926 31.8857C28.1833 37.9341 26.0442 45.0481 24.6263 49.7538L25.5838 50.0423C27.0018 45.3362 29.1411 38.2215 30.9506 32.1723C32.7543 26.1425 34.2435 21.1287 34.3473 20.6615L33.3711 20.4445ZM25.5267 50.1668C27.4462 47.155 30.7379 45.3985 34.6139 44.4932C38.4877 43.5885 42.8856 43.5494 46.9179 43.9239L47.0103 42.9282C42.9182 42.5482 38.403 42.5814 34.3865 43.5195C30.3723 44.457 26.7966 46.3137 24.6834 49.6293L25.5267 50.1668ZM47.4248 43.6205C50.2621 36.8982 49.5239 28.3787 47.4807 20.4913C45.4331 12.5872 42.05 5.2237 39.4858 0.751308L38.6183 1.24869C41.1454 5.65637 44.4908 12.9374 46.5126 20.7421C48.5388 28.5635 49.211 36.8169 46.5035 43.2316L47.4248 43.6205ZM38.6002 1.21404C38.9637 1.98139 38.9163 2.9294 38.5062 4.02867C38.0968 5.1258 37.348 6.31047 36.4132 7.48923C34.5453 9.8445 32.0087 12.0847 30.2423 13.4247L30.8467 14.2214C32.6559 12.8489 35.2608 10.5516 37.1967 8.1106C38.1638 6.8912 38.9824 5.61299 39.4431 4.37823C39.903 3.14562 40.0282 1.89274 39.5039 0.785957L38.6002 1.21404ZM30.2415 13.4253C18.1456 22.6368 13.3417 31.8436 12.4359 39.8334C11.5314 47.812 14.5246 54.4894 17.8579 58.6313L18.6369 58.0043C15.4365 54.0274 12.5608 47.6091 13.4295 39.946C14.297 32.294 18.9084 23.3128 30.8474 14.2208L30.2415 13.4253Z" fill="white"/>
<circle cx="6.36364" cy="63.9999" r="5.86364" fill="#585858" stroke="white"/>
</svg>
