<svg width="95" height="65" viewBox="0 0 95 65" fill="none" xmlns="http://www.w3.org/2000/svg">
<path fill-rule="evenodd" clip-rule="evenodd" d="M26.3889 2C26.3889 1.44772 26.8366 1 27.3889 1H67.6111C68.1634 1 68.6111 1.44772 68.6111 2V42.808C68.6111 43.0732 68.5058 43.3276 68.3182 43.5151L48.2071 63.6262C47.8166 64.0167 47.1834 64.0167 46.7929 63.6262L26.6818 43.5151C26.4943 43.3276 26.3889 43.0732 26.3889 42.808V2ZM51.7814 23.5517C51.3482 23.5517 50.9642 23.2727 50.8303 22.8607L48.4511 15.5382C48.1518 14.6168 46.8483 14.6168 46.549 15.5382L44.1698 22.8607C44.0359 23.2727 43.6519 23.5517 43.2187 23.5517L35.5193 23.5517C34.5506 23.5517 34.1478 24.7913 34.9316 25.3607L41.1605 29.8863C41.511 30.1409 41.6576 30.5923 41.5237 31.0043L39.1445 38.3268C38.8452 39.2481 39.8996 40.0143 40.6833 39.4449L46.9123 34.9193C47.2628 34.6646 47.7374 34.6646 48.0878 34.9193L54.3168 39.4449C55.1005 40.0143 56.1549 39.2481 55.8556 38.3268L53.4764 31.0043C53.3425 30.5923 53.4891 30.1409 53.8396 29.8863L60.0686 25.3607C60.8523 24.7913 60.4495 23.5517 59.4808 23.5517L51.7814 23.5517Z" fill="#585858"/>
<path d="M59.4808 23.5517L59.4808 23.0517L59.4808 23.5517ZM53.4764 31.0043L53.9519 30.8498L53.4764 31.0043ZM53.8396 29.8863L53.5457 29.4818L53.8396 29.8863ZM54.3168 39.4449L54.0229 39.8494L54.3168 39.4449ZM55.8556 38.3268L56.3311 38.1723L55.8556 38.3268ZM46.9123 34.9193L46.6184 34.5148L46.9123 34.9193ZM48.0878 34.9193L47.7939 35.3238L48.0878 34.9193ZM39.1445 38.3268L38.669 38.1723L39.1445 38.3268ZM40.6833 39.4449L40.9772 39.8494L40.6833 39.4449ZM41.5237 31.0043L41.9993 31.1588L41.5237 31.0043ZM35.5193 23.5517L35.5193 23.0517L35.5193 23.5517ZM34.9316 25.3607L34.6377 25.7652L34.9316 25.3607ZM44.1698 22.8607L43.6942 22.7062L44.1698 22.8607ZM43.2187 23.5517L43.2187 24.0517L43.2187 23.5517ZM50.8303 22.8607L51.3059 22.7062L50.8303 22.8607ZM51.7814 23.5517L51.7814 23.0517L51.7814 23.5517ZM26.6818 43.5151L27.0354 43.1616L26.6818 43.5151ZM48.2071 63.6262L47.8536 63.2727L48.2071 63.6262ZM46.7929 63.6262L47.1465 63.2727L46.7929 63.6262ZM68.3182 43.5151L67.9647 43.1616L68.3182 43.5151ZM67.6111 0.5H27.3889V1.5H67.6111V0.5ZM69.1111 42.808V2H68.1111V42.808H69.1111ZM48.5607 63.9798L68.6718 43.8687L67.9647 43.1616L47.8536 63.2727L48.5607 63.9798ZM26.3283 43.8687L46.4394 63.9798L47.1465 63.2727L27.0354 43.1616L26.3283 43.8687ZM25.8889 2V42.808H26.8889V2H25.8889ZM47.9756 15.6927L50.3548 23.0152L51.3059 22.7062L48.9266 15.3836L47.9756 15.6927ZM44.6453 23.0152L47.0245 15.6927L46.0735 15.3836L43.6942 22.7062L44.6453 23.0152ZM35.5193 24.0517L43.2187 24.0517L43.2187 23.0517L35.5193 23.0517L35.5193 24.0517ZM41.4544 29.4818L35.2254 24.9562L34.6377 25.7652L40.8666 30.2908L41.4544 29.4818ZM39.62 38.4813L41.9993 31.1588L41.0482 30.8498L38.669 38.1723L39.62 38.4813ZM46.6184 34.5148L40.3895 39.0404L40.9772 39.8494L47.2062 35.3238L46.6184 34.5148ZM54.6106 39.0404L48.3817 34.5148L47.7939 35.3238L54.0229 39.8494L54.6106 39.0404ZM53.0008 31.1588L55.3801 38.4813L56.3311 38.1723L53.9519 30.8498L53.0008 31.1588ZM59.7747 24.9562L53.5457 29.4818L54.1335 30.2908L60.3624 25.7652L59.7747 24.9562ZM51.7814 24.0517L59.4808 24.0517L59.4808 23.0517L51.7814 23.0517L51.7814 24.0517ZM60.3624 25.7652C61.538 24.9111 60.9339 23.0517 59.4808 23.0517L59.4808 24.0517C59.9651 24.0517 60.1665 24.6715 59.7747 24.9562L60.3624 25.7652ZM53.9519 30.8498C53.885 30.6438 53.9583 30.4181 54.1335 30.2908L53.5457 29.4818C53.02 29.8637 52.8 30.5408 53.0008 31.1588L53.9519 30.8498ZM54.0229 39.8494C55.1984 40.7035 56.7802 39.5543 56.3311 38.1723L55.3801 38.4813C55.5297 38.942 55.0025 39.3251 54.6106 39.0404L54.0229 39.8494ZM47.2062 35.3238C47.3814 35.1965 47.6187 35.1965 47.7939 35.3238L48.3817 34.5148C47.856 34.1328 47.1441 34.1328 46.6184 34.5148L47.2062 35.3238ZM38.669 38.1723C38.22 39.5543 39.8017 40.7035 40.9772 39.8494L40.3895 39.0404C39.9976 39.3251 39.4704 38.942 39.62 38.4813L38.669 38.1723ZM40.8666 30.2908C41.0418 30.4181 41.1152 30.6438 41.0482 30.8498L41.9993 31.1588C42.2001 30.5408 41.9801 29.8637 41.4544 29.4818L40.8666 30.2908ZM35.5193 23.0517C34.0663 23.0517 33.4621 24.9111 34.6377 25.7652L35.2254 24.9562C34.8336 24.6715 35.035 24.0517 35.5193 24.0517L35.5193 23.0517ZM43.6942 22.7062C43.6273 22.9122 43.4353 23.0517 43.2187 23.0517L43.2187 24.0517C43.8685 24.0517 44.4445 23.6332 44.6453 23.0152L43.6942 22.7062ZM50.3548 23.0152C50.5556 23.6332 51.1316 24.0517 51.7814 24.0517L51.7814 23.0517C51.5648 23.0517 51.3728 22.9122 51.3059 22.7062L50.3548 23.0152ZM48.9266 15.3836C48.4776 14.0017 46.5225 14.0017 46.0735 15.3836L47.0245 15.6927C47.1742 15.232 47.8259 15.232 47.9756 15.6927L48.9266 15.3836ZM27.0354 43.1616C26.9416 43.0678 26.8889 42.9406 26.8889 42.808H25.8889C25.8889 43.2058 26.047 43.5874 26.3283 43.8687L27.0354 43.1616ZM47.8536 63.2727C47.6583 63.4679 47.3417 63.4679 47.1465 63.2727L46.4394 63.9798C47.0252 64.5656 47.9749 64.5656 48.5607 63.9798L47.8536 63.2727ZM68.1111 42.808C68.1111 42.9406 68.0585 43.0678 67.9647 43.1616L68.6718 43.8687C68.9531 43.5874 69.1111 43.2058 69.1111 42.808H68.1111ZM27.3889 0.5C26.5605 0.5 25.8889 1.17157 25.8889 2H26.8889C26.8889 1.72386 27.1128 1.5 27.3889 1.5V0.5ZM67.6111 1.5C67.8873 1.5 68.1111 1.72386 68.1111 2H69.1111C69.1111 1.17158 68.4396 0.5 67.6111 0.5V1.5Z" fill="white"/>
<path d="M15.8333 17.8887L17.6107 23.359L23.3625 23.359L18.7092 26.7398L20.4866 32.2101L15.8333 28.8292L11.18 32.2101L12.9574 26.7398L8.3041 23.359L14.0559 23.359L15.8333 17.8887Z" fill="#585858"/>
<path d="M79.1667 17.8887L80.9441 23.359L86.6959 23.359L82.0426 26.7398L83.82 32.2101L79.1667 28.8292L74.5134 32.2101L76.2908 26.7398L71.6375 23.359L77.3893 23.359L79.1667 17.8887Z" fill="#585858"/>
<path d="M3.95833 14.7227L4.84703 17.4578L7.72293 17.4578L5.39628 19.1482L6.28498 21.8833L3.95833 20.1929L1.63168 21.8833L2.52038 19.1482L0.193735 17.4578L3.06963 17.4578L3.95833 14.7227Z" fill="#585858"/>
<path d="M91.0416 14.7227L91.9303 17.4578L94.8062 17.4578L92.4795 19.1482L93.3682 21.8833L91.0416 20.1929L88.7149 21.8833L89.6036 19.1482L87.277 17.4578L90.1529 17.4578L91.0416 14.7227Z" fill="#585858"/>
</svg>
