<svg width="70" height="77" viewBox="0 0 70 77" fill="none" xmlns="http://www.w3.org/2000/svg">
<path d="M31.4632 43.9754L25.4969 39.9226C24.2279 39.0605 22.513 39.2948 21.5216 40.4656L5.9197 58.8929C4.23391 60.8839 5.71741 63.9293 8.32437 63.8292L16.2554 63.5246C17.503 63.4767 18.6497 64.2064 19.1348 65.3568L20.5503 68.7135C21.6396 71.2966 25.3616 71.1071 26.183 68.4268L32.6458 47.3359C33.0314 46.0776 32.5518 44.7149 31.4632 43.9754Z" fill="#585858" stroke="white" stroke-linecap="round"/>
<path d="M37.6677 42.9876L44.8463 38.8185C46.1182 38.0797 47.7382 38.3722 48.6716 39.509L64.3583 58.6151C66.0194 60.6383 64.4737 63.6697 61.8606 63.5135L52.4984 62.9537C51.3268 62.8836 50.2218 63.5033 49.6707 64.5397L47.3987 68.8115C46.1119 71.231 42.5218 70.8007 41.8434 68.1456L36.2677 46.3245C35.9354 45.0242 36.5072 43.6615 37.6677 42.9876Z" fill="#585858" stroke="white" stroke-linecap="round"/>
<mask id="path-3-inside-1_928_3" fill="white">
<path fill-rule="evenodd" clip-rule="evenodd" d="M36.3495 1.11112C35.3498 -0.370375 33.1688 -0.370375 32.169 1.11112C31.3515 2.3226 29.6786 2.58757 28.5268 1.68801C27.1182 0.587945 25.0439 1.26192 24.5509 2.97984C24.1478 4.38464 22.6386 5.1536 21.2652 4.65401C19.5856 4.04307 17.8211 5.32504 17.8831 7.11122C17.9338 8.57184 16.7361 9.76952 15.2755 9.7188C13.4893 9.65679 12.2074 11.4213 12.8183 13.1009C13.3179 14.4743 12.5489 15.9835 11.1441 16.3866C9.42622 16.8796 8.75225 18.9539 9.85231 20.3625C10.7519 21.5143 10.4869 23.1872 9.27543 24.0047C7.79393 25.0045 7.79393 27.1855 9.27543 28.1852C10.4869 29.0027 10.7519 30.6756 9.85231 31.8275C8.75225 33.2361 9.42622 35.3103 11.1441 35.8033C12.5489 36.2064 13.3179 37.7156 12.8183 39.0891C12.2074 40.7687 13.4893 42.5331 15.2755 42.4711C16.7361 42.4204 17.9338 43.6181 17.8831 45.0787C17.8211 46.8649 19.5856 48.1469 21.2652 47.5359C22.6386 47.0363 24.1478 47.8053 24.5509 49.2101C25.0439 50.928 27.1182 51.602 28.5268 50.5019C29.6786 49.6024 31.3515 49.8673 32.169 51.0788C33.1688 52.5603 35.3498 52.5603 36.3495 51.0788C37.167 49.8673 38.8399 49.6024 39.9918 50.5019C41.4004 51.602 43.4746 50.928 43.9676 49.2101C44.3707 47.8053 45.8799 47.0363 47.2534 47.5359C48.933 48.1469 50.6974 46.8649 50.6354 45.0787C50.5847 43.6181 51.7824 42.4204 53.243 42.4711C55.0292 42.5331 56.3112 40.7687 55.7002 39.0891C55.2006 37.7156 55.9696 36.2064 57.3744 35.8033C59.0923 35.3103 59.7663 33.2361 58.6662 31.8275C57.7667 30.6756 58.0316 29.0027 59.2431 28.1852C60.7246 27.1855 60.7246 25.0045 59.2431 24.0047C58.0316 23.1872 57.7667 21.5143 58.6662 20.3625C59.7663 18.9539 59.0923 16.8796 57.3744 16.3866C55.9696 15.9835 55.2006 14.4743 55.7002 13.1009C56.3112 11.4213 55.0292 9.65679 53.243 9.7188C51.7824 9.76952 50.5847 8.57184 50.6354 7.11122C50.6974 5.32504 48.933 4.04307 47.2534 4.65401C45.8799 5.1536 44.3707 4.38464 43.9676 2.97984C43.4746 1.26192 41.4004 0.587945 39.9918 1.68801C38.8399 2.58757 37.167 2.3226 36.3495 1.11112ZM52.2618 19.9274C53.8183 18.3597 53.8092 15.8271 52.2415 14.2706C50.6739 12.7141 48.1412 12.7232 46.5847 14.2908L30.4318 30.5598L24.1804 24.2635C22.6239 22.6958 20.0912 22.6868 18.5236 24.2433C16.9559 25.7998 16.9468 28.3324 18.5033 29.9001L27.5933 39.0553L30.4318 41.9142L33.2703 39.0553L52.2618 19.9274Z"/>
</mask>
<path fill-rule="evenodd" clip-rule="evenodd" d="M36.3495 1.11112C35.3498 -0.370375 33.1688 -0.370375 32.169 1.11112C31.3515 2.3226 29.6786 2.58757 28.5268 1.68801C27.1182 0.587945 25.0439 1.26192 24.5509 2.97984C24.1478 4.38464 22.6386 5.1536 21.2652 4.65401C19.5856 4.04307 17.8211 5.32504 17.8831 7.11122C17.9338 8.57184 16.7361 9.76952 15.2755 9.7188C13.4893 9.65679 12.2074 11.4213 12.8183 13.1009C13.3179 14.4743 12.5489 15.9835 11.1441 16.3866C9.42622 16.8796 8.75225 18.9539 9.85231 20.3625C10.7519 21.5143 10.4869 23.1872 9.27543 24.0047C7.79393 25.0045 7.79393 27.1855 9.27543 28.1852C10.4869 29.0027 10.7519 30.6756 9.85231 31.8275C8.75225 33.2361 9.42622 35.3103 11.1441 35.8033C12.5489 36.2064 13.3179 37.7156 12.8183 39.0891C12.2074 40.7687 13.4893 42.5331 15.2755 42.4711C16.7361 42.4204 17.9338 43.6181 17.8831 45.0787C17.8211 46.8649 19.5856 48.1469 21.2652 47.5359C22.6386 47.0363 24.1478 47.8053 24.5509 49.2101C25.0439 50.928 27.1182 51.602 28.5268 50.5019C29.6786 49.6024 31.3515 49.8673 32.169 51.0788C33.1688 52.5603 35.3498 52.5603 36.3495 51.0788C37.167 49.8673 38.8399 49.6024 39.9918 50.5019C41.4004 51.602 43.4746 50.928 43.9676 49.2101C44.3707 47.8053 45.8799 47.0363 47.2534 47.5359C48.933 48.1469 50.6974 46.8649 50.6354 45.0787C50.5847 43.6181 51.7824 42.4204 53.243 42.4711C55.0292 42.5331 56.3112 40.7687 55.7002 39.0891C55.2006 37.7156 55.9696 36.2064 57.3744 35.8033C59.0923 35.3103 59.7663 33.2361 58.6662 31.8275C57.7667 30.6756 58.0316 29.0027 59.2431 28.1852C60.7246 27.1855 60.7246 25.0045 59.2431 24.0047C58.0316 23.1872 57.7667 21.5143 58.6662 20.3625C59.7663 18.9539 59.0923 16.8796 57.3744 16.3866C55.9696 15.9835 55.2006 14.4743 55.7002 13.1009C56.3112 11.4213 55.0292 9.65679 53.243 9.7188C51.7824 9.76952 50.5847 8.57184 50.6354 7.11122C50.6974 5.32504 48.933 4.04307 47.2534 4.65401C45.8799 5.1536 44.3707 4.38464 43.9676 2.97984C43.4746 1.26192 41.4004 0.587945 39.9918 1.68801C38.8399 2.58757 37.167 2.3226 36.3495 1.11112ZM52.2618 19.9274C53.8183 18.3597 53.8092 15.8271 52.2415 14.2706C50.6739 12.7141 48.1412 12.7232 46.5847 14.2908L30.4318 30.5598L24.1804 24.2635C22.6239 22.6958 20.0912 22.6868 18.5236 24.2433C16.9559 25.7998 16.9468 28.3324 18.5033 29.9001L27.5933 39.0553L30.4318 41.9142L33.2703 39.0553L52.2618 19.9274Z" fill="#585858"/>
<path d="M32.169 1.11112L32.998 1.67048L32.998 1.67048L32.169 1.11112ZM36.3495 1.11112L35.5206 1.67048L35.5206 1.67048L36.3495 1.11112ZM28.5268 1.68801L29.1423 0.899872L29.1423 0.899872L28.5268 1.68801ZM24.5509 2.97984L25.5121 3.25567L25.5121 3.25566L24.5509 2.97984ZM21.2652 4.65401L21.607 3.71425L21.607 3.71425L21.2652 4.65401ZM17.8831 7.11122L16.8837 7.14592L16.8837 7.14592L17.8831 7.11122ZM15.2755 9.7188L15.3102 8.71941L15.3102 8.71941L15.2755 9.7188ZM12.8183 13.1009L13.7581 12.759L13.7581 12.759L12.8183 13.1009ZM11.1441 16.3866L11.42 17.3478L11.42 17.3478L11.1441 16.3866ZM9.85231 20.3625L10.6404 19.7469L10.6404 19.7469L9.85231 20.3625ZM9.27543 24.0047L9.83479 24.8337L9.83479 24.8337L9.27543 24.0047ZM9.27543 28.1852L9.83479 27.3563L9.83479 27.3563L9.27543 28.1852ZM9.85231 31.8275L10.6404 32.443L10.6404 32.443L9.85231 31.8275ZM11.1441 35.8033L10.8683 36.7645L10.8683 36.7645L11.1441 35.8033ZM12.8183 39.0891L13.7581 39.4309L13.7581 39.4309L12.8183 39.0891ZM15.2755 42.4711L15.3102 43.4705L15.3102 43.4705L15.2755 42.4711ZM17.8831 45.0787L16.8837 45.044L16.8837 45.044L17.8831 45.0787ZM21.2652 47.5359L20.9233 46.5962L20.9233 46.5962L21.2652 47.5359ZM24.5509 49.2101L25.5121 48.9343L25.5121 48.9343L24.5509 49.2101ZM28.5268 50.5019L27.9113 49.7138L27.9113 49.7138L28.5268 50.5019ZM32.169 51.0788L31.3401 51.6382L31.3401 51.6382L32.169 51.0788ZM36.3495 51.0788L37.1784 51.6382L37.1784 51.6382L36.3495 51.0788ZM39.9918 50.5019L40.6073 49.7138L40.6073 49.7138L39.9918 50.5019ZM43.9676 49.2101L43.0064 48.9343L43.0064 48.9343L43.9676 49.2101ZM47.2534 47.5359L47.5952 46.5962L47.5952 46.5962L47.2534 47.5359ZM50.6354 45.0787L51.6348 45.044L51.6348 45.044L50.6354 45.0787ZM53.243 42.4711L53.2083 43.4705L53.2083 43.4705L53.243 42.4711ZM55.7002 39.0891L54.7605 39.4309L54.7605 39.4309L55.7002 39.0891ZM57.3744 35.8033L57.6502 36.7645L57.6502 36.7645L57.3744 35.8033ZM58.6662 31.8275L59.4544 31.212L59.4544 31.212L58.6662 31.8275ZM59.2431 28.1852L59.8025 29.0141L59.8025 29.0141L59.2431 28.1852ZM59.2431 24.0047L59.8025 23.1758L59.8025 23.1758L59.2431 24.0047ZM58.6662 20.3625L59.4544 20.978L59.4544 20.978L58.6662 20.3625ZM57.3744 16.3866L57.6502 15.4254L57.6502 15.4254L57.3744 16.3866ZM55.7002 13.1009L54.7605 12.759L54.7605 12.759L55.7002 13.1009ZM53.243 9.7188L53.2083 8.71941L53.2083 8.71941L53.243 9.7188ZM50.6354 7.11122L51.6348 7.14592L51.6348 7.14592L50.6354 7.11122ZM47.2534 4.65401L46.9115 3.71425L46.9115 3.71425L47.2534 4.65401ZM43.9676 2.97984L43.0064 3.25566L43.0064 3.25567L43.9676 2.97984ZM39.9918 1.68801L40.6073 2.47614L40.6073 2.47614L39.9918 1.68801ZM52.2415 14.2706L51.537 14.9802L51.537 14.9802L52.2415 14.2706ZM52.2618 19.9274L51.5521 19.2228L52.2618 19.9274ZM46.5847 14.2908L47.2943 14.9954L47.2943 14.9954L46.5847 14.2908ZM30.4318 30.5598L29.7222 31.2644L30.4318 31.9791L31.1414 31.2644L30.4318 30.5598ZM24.1804 24.2635L24.89 23.5589L24.89 23.5589L24.1804 24.2635ZM18.5033 29.9001L19.213 29.1955L19.213 29.1955L18.5033 29.9001ZM27.5933 39.0553L26.8836 39.7599L26.8836 39.7599L27.5933 39.0553ZM30.4318 41.9142L29.7222 42.6188L30.4318 43.3335L31.1414 42.6188L30.4318 41.9142ZM33.2703 39.0553L33.98 39.7599L33.98 39.7599L33.2703 39.0553ZM32.998 1.67048C33.6012 0.776506 34.9173 0.776506 35.5206 1.67048L37.1784 0.551766C35.7822 -1.51726 32.7363 -1.51726 31.3401 0.551767L32.998 1.67048ZM27.9113 2.47614C29.5199 3.73244 31.8563 3.3624 32.998 1.67048L31.3401 0.551766C30.8468 1.28281 29.8373 1.44269 29.1423 0.899872L27.9113 2.47614ZM25.5121 3.25566C25.8096 2.21903 27.0613 1.81233 27.9113 2.47614L29.1423 0.899872C27.1751 -0.636443 24.2782 0.304808 23.5897 2.70401L25.5121 3.25566ZM20.9233 5.59377C22.8415 6.29148 24.9491 5.21758 25.5121 3.25567L23.5897 2.70401C23.3465 3.5517 22.4358 4.01571 21.607 3.71425L20.9233 5.59377ZM18.8825 7.07652C18.8451 5.99869 19.9098 5.22511 20.9233 5.59377L21.607 3.71425C19.2613 2.86102 16.7971 4.65139 16.8837 7.14592L18.8825 7.07652ZM15.2408 10.7182C17.2807 10.789 18.9533 9.11638 18.8825 7.07652L16.8837 7.14592C16.9143 8.02729 16.1916 8.75001 15.3102 8.71941L15.2408 10.7182ZM13.7581 12.759C13.3894 11.7455 14.163 10.6808 15.2408 10.7182L15.3102 8.71941C12.8157 8.63279 11.0253 11.097 11.8786 13.4427L13.7581 12.759ZM11.42 17.3478C13.3819 16.7848 14.4558 14.6772 13.7581 12.759L11.8786 13.4427C12.18 14.2715 11.716 15.1821 10.8683 15.4254L11.42 17.3478ZM10.6404 19.7469C9.97664 18.897 10.3833 17.6453 11.42 17.3478L10.8683 15.4254C8.46912 16.1139 7.52786 19.0108 9.06418 20.978L10.6404 19.7469ZM9.83479 24.8337C11.5267 23.692 11.8967 21.3556 10.6404 19.7469L9.06418 20.978C9.607 21.673 9.44711 22.6825 8.71607 23.1758L9.83479 24.8337ZM9.83479 27.3563C8.94081 26.753 8.94081 25.4369 9.83479 24.8337L8.71607 23.1758C6.64705 24.572 6.64705 27.6179 8.71607 29.0141L9.83479 27.3563ZM10.6404 32.443C11.8967 30.8343 11.5267 28.498 9.83479 27.3563L8.71607 29.0141C9.44711 29.5074 9.607 30.5169 9.06418 31.212L10.6404 32.443ZM11.42 34.8421C10.3833 34.5446 9.97664 33.293 10.6404 32.443L9.06418 31.212C7.52786 33.1792 8.46912 36.076 10.8683 36.7645L11.42 34.8421ZM13.7581 39.4309C14.4558 37.5128 13.3819 35.4051 11.42 34.8421L10.8683 36.7645C11.716 37.0078 12.18 37.9184 11.8786 38.7472L13.7581 39.4309ZM15.2408 41.4717C14.163 41.5091 13.3894 40.4444 13.7581 39.4309L11.8786 38.7472C11.0253 41.0929 12.8157 43.5571 15.3102 43.4705L15.2408 41.4717ZM18.8825 45.1134C18.9533 43.0735 17.2807 41.4009 15.2408 41.4717L15.3102 43.4705C16.1916 43.4399 16.9143 44.1626 16.8837 45.044L18.8825 45.1134ZM20.9233 46.5962C19.9098 46.9648 18.8451 46.1912 18.8825 45.1134L16.8837 45.044C16.7971 47.5385 19.2613 49.3289 21.607 48.4757L20.9233 46.5962ZM25.5121 48.9343C24.9491 46.9723 22.8415 45.8984 20.9233 46.5962L21.607 48.4757C22.4358 48.1742 23.3465 48.6382 23.5897 49.4859L25.5121 48.9343ZM27.9113 49.7138C27.0613 50.3776 25.8096 49.9709 25.5121 48.9343L23.5897 49.4859C24.2782 51.8851 27.1751 52.8264 29.1423 51.2901L27.9113 49.7138ZM32.998 50.5194C31.8563 48.8275 29.5199 48.4575 27.9113 49.7138L29.1423 51.2901C29.8373 50.7472 30.8468 50.9071 31.3401 51.6382L32.998 50.5194ZM35.5206 50.5194C34.9173 51.4134 33.6012 51.4134 32.998 50.5194L31.3401 51.6382C32.7363 53.7072 35.7822 53.7072 37.1784 51.6382L35.5206 50.5194ZM40.6073 49.7138C38.9986 48.4575 36.6623 48.8275 35.5206 50.5194L37.1784 51.6382C37.6717 50.9071 38.6812 50.7472 39.3763 51.2901L40.6073 49.7138ZM43.0064 48.9343C42.7089 49.9709 41.4573 50.3776 40.6073 49.7138L39.3763 51.2901C41.3435 52.8264 44.2404 51.8851 44.9288 49.4859L43.0064 48.9343ZM47.5952 46.5962C45.6771 45.8984 43.5694 46.9723 43.0064 48.9343L44.9288 49.4859C45.1721 48.6382 46.0828 48.1742 46.9115 48.4757L47.5952 46.5962ZM49.636 45.1134C49.6735 46.1912 48.6087 46.9648 47.5952 46.5962L46.9115 48.4757C49.2572 49.3289 51.7214 47.5385 51.6348 45.044L49.636 45.1134ZM53.2777 41.4717C51.2379 41.4009 49.5652 43.0735 49.636 45.1134L51.6348 45.044C51.6042 44.1626 52.3269 43.4399 53.2083 43.4705L53.2777 41.4717ZM54.7605 39.4309C55.1291 40.4444 54.3555 41.5091 53.2777 41.4717L53.2083 43.4705C55.7028 43.5571 57.4932 41.0929 56.64 38.7472L54.7605 39.4309ZM57.0986 34.8421C55.1366 35.4051 54.0628 37.5128 54.7605 39.4309L56.64 38.7472C56.3385 37.9184 56.8025 37.0078 57.6502 36.7645L57.0986 34.8421ZM57.8781 32.443C58.5419 33.293 58.1352 34.5446 57.0986 34.8421L57.6502 36.7645C60.0494 36.076 60.9907 33.1792 59.4544 31.212L57.8781 32.443ZM58.6837 27.3563C56.9918 28.498 56.6218 30.8343 57.8781 32.443L59.4544 31.212C58.9115 30.5169 59.0714 29.5074 59.8025 29.0141L58.6837 27.3563ZM58.6837 24.8337C59.5777 25.4369 59.5777 26.753 58.6837 27.3563L59.8025 29.0141C61.8715 27.6179 61.8715 24.572 59.8025 23.1758L58.6837 24.8337ZM57.8781 19.7469C56.6218 21.3556 56.9918 23.692 58.6837 24.8337L59.8025 23.1758C59.0714 22.6825 58.9115 21.673 59.4544 20.978L57.8781 19.7469ZM57.0986 17.3478C58.1352 17.6453 58.5419 18.897 57.8781 19.7469L59.4544 20.978C60.9907 19.0108 60.0494 16.1139 57.6502 15.4254L57.0986 17.3478ZM54.7605 12.759C54.0628 14.6772 55.1367 16.7848 57.0986 17.3478L57.6502 15.4254C56.8025 15.1821 56.3385 14.2715 56.64 13.4427L54.7605 12.759ZM53.2777 10.7182C54.3555 10.6808 55.1291 11.7455 54.7605 12.759L56.64 13.4427C57.4932 11.097 55.7028 8.63279 53.2083 8.71941L53.2777 10.7182ZM49.636 7.07651C49.5652 9.11638 51.2379 10.789 53.2777 10.7182L53.2083 8.71941C52.3269 8.75001 51.6042 8.02729 51.6348 7.14592L49.636 7.07651ZM47.5952 5.59377C48.6087 5.22511 49.6735 5.99869 49.636 7.07651L51.6348 7.14592C51.7214 4.65139 49.2572 2.86103 46.9115 3.71425L47.5952 5.59377ZM43.0064 3.25567C43.5694 5.21758 45.6771 6.29148 47.5952 5.59377L46.9115 3.71425C46.0828 4.01571 45.1721 3.5517 44.9288 2.70401L43.0064 3.25567ZM40.6073 2.47614C41.4573 1.81233 42.7089 2.21903 43.0064 3.25566L44.9288 2.70401C44.2404 0.304808 41.3435 -0.636443 39.3763 0.899872L40.6073 2.47614ZM35.5206 1.67048C36.6623 3.3624 38.9986 3.73244 40.6073 2.47614L39.3763 0.899872C38.6812 1.44269 37.6717 1.2828 37.1784 0.551766L35.5206 1.67048ZM51.537 14.9802C52.7127 16.1476 52.7195 18.0471 51.5521 19.2228L52.9714 20.632C54.917 18.6724 54.9057 15.5066 52.9461 13.561L51.537 14.9802ZM47.2943 14.9954C48.4617 13.8196 50.3612 13.8128 51.537 14.9802L52.9461 13.561C50.9865 11.6153 47.8207 11.6267 45.8751 13.5863L47.2943 14.9954ZM31.1414 31.2644L47.2943 14.9954L45.8751 13.5863L29.7222 29.8552L31.1414 31.2644ZM23.4708 24.9681L29.7222 31.2644L31.1414 29.8552L24.89 23.5589L23.4708 24.9681ZM19.2281 24.9529C20.4039 23.7855 22.3034 23.7923 23.4708 24.9681L24.89 23.5589C22.9444 21.5993 19.7786 21.588 17.819 23.5336L19.2281 24.9529ZM19.213 29.1955C18.0456 28.0197 18.0524 26.1203 19.2281 24.9529L17.819 23.5336C15.8594 25.4792 15.8481 28.645 17.7937 30.6046L19.213 29.1955ZM28.3029 38.3507L19.213 29.1955L17.7937 30.6046L26.8836 39.7599L28.3029 38.3507ZM31.1414 41.2097L28.3029 38.3507L26.8836 39.7599L29.7222 42.6188L31.1414 41.2097ZM32.5607 38.3507L29.7222 41.2097L31.1414 42.6188L33.98 39.7599L32.5607 38.3507ZM51.5521 19.2228L32.5607 38.3507L33.98 39.7599L52.9714 20.632L51.5521 19.2228Z" fill="white" mask="url(#path-3-inside-1_928_3)"/>
</svg>
