<svg width="60" height="60" viewBox="0 0 60 60" fill="none" xmlns="http://www.w3.org/2000/svg">
<rect x="25.4533" y="7.79004" width="1.80374" height="4.60748" fill="#585858" stroke="white"/>
<rect x="25.4533" y="54.8931" width="1.80374" height="4.60748" fill="#585858" stroke="white"/>
<rect x="0.5" y="34.5469" width="1.80374" height="4.60748" transform="rotate(-90 0.5 34.5469)" fill="#585858" stroke="white"/>
<rect x="47.6028" y="34.5469" width="1.80374" height="4.60748" transform="rotate(-90 47.6028 34.5469)" fill="#585858" stroke="white"/>
<rect x="3.51303" y="21.4986" width="1.80374" height="4.60748" transform="rotate(-60 3.51303 21.4986)" fill="#585858" stroke="white"/>
<rect x="44.3052" y="45.0499" width="1.80374" height="4.60748" transform="rotate(-60 44.3052 45.0499)" fill="#585858" stroke="white"/>
<rect x="12.6465" y="11.7045" width="1.80374" height="4.60748" transform="rotate(-30 12.6465 11.7045)" fill="#585858" stroke="white"/>
<rect x="36.198" y="52.4965" width="1.80374" height="4.60748" transform="rotate(-30 36.198 52.4965)" fill="#585858" stroke="white"/>
<rect x="48.2954" y="19.9364" width="1.80374" height="4.60748" transform="rotate(60 48.2954 19.9364)" fill="#585858" stroke="white"/>
<rect x="7.50314" y="43.4877" width="1.80374" height="4.60748" transform="rotate(60 7.50314 43.4877)" fill="#585858" stroke="white"/>
<rect x="38.5017" y="10.8026" width="1.80374" height="4.60748" transform="rotate(30 38.5017 10.8026)" fill="#585858" stroke="white"/>
<rect x="14.9502" y="51.5946" width="1.80374" height="4.60748" transform="rotate(30 14.9502 51.5946)" fill="#585858" stroke="white"/>
<circle cx="26.3551" cy="33.645" r="2.30374" fill="#585858" stroke="white"/>
<mask id="path-14-inside-1_928_9" fill="white">
<path fill-rule="evenodd" clip-rule="evenodd" d="M49.5539 56.0735C55.9755 50.1713 60 41.7018 60 32.2923C60 14.4578 45.5423 0 27.7077 0C18.2969 0 9.8263 4.02562 3.92401 10.4488C9.67374 5.16411 17.3452 1.93769 25.7702 1.93769C43.6048 1.93769 58.0625 16.3954 58.0625 34.23C58.0625 42.6537 54.8371 50.3241 49.5539 56.0735Z"/>
</mask>
<path fill-rule="evenodd" clip-rule="evenodd" d="M49.5539 56.0735C55.9755 50.1713 60 41.7018 60 32.2923C60 14.4578 45.5423 0 27.7077 0C18.2969 0 9.8263 4.02562 3.92401 10.4488C9.67374 5.16411 17.3452 1.93769 25.7702 1.93769C43.6048 1.93769 58.0625 16.3954 58.0625 34.23C58.0625 42.6537 54.8371 50.3241 49.5539 56.0735Z" fill="#585858"/>
<path d="M49.5539 56.0735L48.8176 55.3969L50.2306 56.8098L49.5539 56.0735ZM3.92401 10.4488L3.18768 9.77216L4.60072 11.185L3.92401 10.4488ZM59 32.2923C59 41.4104 55.1014 49.6165 48.8772 55.3373L50.2306 56.8098C56.8496 50.7262 61 41.9932 61 32.2923H59ZM27.7077 1C44.99 1 59 15.01 59 32.2923H61C61 13.9055 46.0945 -1 27.7077 -1V1ZM4.66034 11.1254C10.3812 4.89967 18.5883 1 27.7077 1V-1C18.0055 -1 9.27138 3.15157 3.18768 9.77216L4.66034 11.1254ZM4.60072 11.185C10.1732 6.06331 17.6056 2.93769 25.7702 2.93769V0.937694C17.0849 0.937694 9.17431 4.26492 3.24731 9.71252L4.60072 11.185ZM25.7702 2.93769C43.0525 2.93769 57.0625 16.9477 57.0625 34.23H59.0625C59.0625 15.8432 44.1571 0.937694 25.7702 0.937694V2.93769ZM57.0625 34.23C57.0625 42.3934 53.9379 49.8248 48.8176 55.3969L50.2903 56.7501C55.7364 50.8235 59.0625 42.914 59.0625 34.23H57.0625Z" fill="white" mask="url(#path-14-inside-1_928_9)"/>
<circle cx="26.3552" cy="33.6451" r="11.0187" stroke="#585858" stroke-width="6"/>
<path d="M27.1971 33.0563L32.1173 28.4365L27.4975 33.3568L27.1971 33.0563Z" fill="#585858" stroke="white"/>
</svg>
