<svg width="82" height="88" viewBox="0 0 82 88" fill="none" xmlns="http://www.w3.org/2000/svg">
<path d="M20.8539 31.9075C17.3229 27.9936 8.60874 18.002 2 9.34668" stroke="#585858" stroke-width="3"/>
<path fill-rule="evenodd" clip-rule="evenodd" d="M79.6259 53.4589C81.5785 55.4115 81.5785 58.5773 79.6259 60.5299L54.975 85.1808C53.0224 87.1334 49.8566 87.1334 47.9039 85.1808L21.182 58.4589C20.2443 57.5212 19.7175 56.2494 19.7175 54.9233L19.7175 30.2725C19.7175 27.511 21.9561 25.2725 24.7175 25.2725L49.3684 25.2725C50.6945 25.2725 51.9663 25.7992 52.9039 26.7369L79.6259 53.4589ZM30.7735 41.3754C33.8706 41.3754 36.3812 38.8647 36.3812 35.7677C36.3812 32.6707 33.8706 30.16 30.7735 30.16C27.6765 30.16 25.1658 32.6707 25.1658 35.7677C25.1658 38.8647 27.6765 41.3754 30.7735 41.3754Z" fill="#585858"/>
<path d="M49.3684 25.2725L49.3684 25.7725L49.3684 25.2725ZM52.9039 26.7369L52.5504 27.0905L52.9039 26.7369ZM24.7175 25.2725L24.7175 24.7725L24.7175 25.2725ZM21.182 58.4589L20.8284 58.8124L21.182 58.4589ZM47.9039 85.1808L47.5504 85.5344L47.9039 85.1808ZM55.3286 85.5344L79.9794 60.8835L79.2723 60.1764L54.6215 84.8273L55.3286 85.5344ZM20.8284 58.8124L47.5504 85.5344L48.2575 84.8273L21.5356 58.1053L20.8284 58.8124ZM19.2175 30.2725L19.2175 54.9233L20.2175 54.9233L20.2175 30.2725L19.2175 30.2725ZM49.3684 24.7725L24.7175 24.7725L24.7175 25.7725L49.3684 25.7725L49.3684 24.7725ZM79.9794 53.1053L53.2575 26.3834L52.5504 27.0905L79.2723 53.8124L79.9794 53.1053ZM35.8812 35.7677C35.8812 38.5886 33.5944 40.8754 30.7735 40.8754V41.8754C34.1467 41.8754 36.8812 39.1409 36.8812 35.7677H35.8812ZM30.7735 30.66C33.5944 30.66 35.8812 32.9468 35.8812 35.7677H36.8812C36.8812 32.3945 34.1467 29.66 30.7735 29.66V30.66ZM25.6658 35.7677C25.6658 32.9468 27.9526 30.66 30.7735 30.66V29.66C27.4003 29.66 24.6658 32.3945 24.6658 35.7677H25.6658ZM30.7735 40.8754C27.9526 40.8754 25.6658 38.5886 25.6658 35.7677H24.6658C24.6658 39.1409 27.4003 41.8754 30.7735 41.8754V40.8754ZM49.3684 25.7725C50.5619 25.7725 51.7065 26.2466 52.5504 27.0905L53.2575 26.3834C52.226 25.3519 50.8271 24.7725 49.3684 24.7725L49.3684 25.7725ZM20.2175 30.2725C20.2175 27.7872 22.2323 25.7725 24.7175 25.7725L24.7175 24.7725C21.68 24.7725 19.2175 27.2349 19.2175 30.2725L20.2175 30.2725ZM21.5356 58.1053C20.6916 57.2614 20.2175 56.1168 20.2175 54.9233L19.2175 54.9233C19.2175 56.382 19.797 57.781 20.8284 58.8124L21.5356 58.1053ZM79.9794 60.8835C82.1273 58.7356 82.1273 55.2532 79.9794 53.1053L79.2723 53.8124C81.0297 55.5698 81.0297 58.419 79.2723 60.1764L79.9794 60.8835ZM54.6215 84.8273C52.8641 86.5846 50.0148 86.5846 48.2575 84.8273L47.5504 85.5344C49.6983 87.6822 53.1807 87.6822 55.3286 85.5344L54.6215 84.8273Z" fill="white"/>
<path d="M8.90344 1L17.315 10.8135C26.2873 21.5616 38.6803 41.6558 25.4462 34.9266" stroke="#585858" stroke-width="3"/>
<path d="M42.2184 44.408L47.2455 39.3809L49.0064 41.1417C49.6164 41.7517 49.9616 42.3318 50.0422 42.8819C50.1251 43.4297 49.9409 43.9292 49.4898 44.3803C49.2435 44.6266 48.9627 44.7809 48.6473 44.843C48.3343 44.9029 48.0212 44.8637 47.7082 44.7256C47.9015 45.0479 47.974 45.3805 47.9257 45.7234C47.8797 46.0687 47.7151 46.3829 47.432 46.666C46.9486 47.1494 46.4284 47.3612 45.8714 47.3013C45.3143 47.2415 44.7481 46.9284 44.1727 46.3622L42.2184 44.408ZM45.4432 43.2548L44.0863 44.6117L44.9737 45.499C45.2177 45.743 45.4651 45.8754 45.716 45.8961C45.9715 45.9168 46.2017 45.8247 46.4065 45.6199C46.8669 45.1595 46.8623 44.6876 46.3927 44.2043L45.4432 43.2548ZM46.1752 42.5228L46.9417 43.2893C47.4734 43.8026 47.943 43.8555 48.3504 43.4481C48.5783 43.2203 48.6749 42.9901 48.6404 42.7576C48.6105 42.5251 48.4528 42.2662 48.1674 41.9807L47.4423 41.2557L46.1752 42.5228ZM52.6448 50.4771L50.6561 48.4883L49.3095 49.8349L51.6435 52.1689L50.8114 53.001L47.4416 49.6312L52.4687 44.6041L55.8316 47.967L54.9926 48.806L52.6655 46.4789L51.4675 47.677L53.4562 49.6657L52.6448 50.4771ZM56.0519 55.6036C56.2476 55.4079 56.3281 55.1893 56.2936 54.9476C56.2614 54.7036 56.1233 54.3445 55.8793 53.8704C55.6376 53.3939 55.4684 52.9945 55.3717 52.6723C55.1093 51.793 55.2394 51.0921 55.7619 50.5696C56.0335 50.298 56.3511 50.1323 56.7148 50.0724C57.0831 50.0126 57.4698 50.0655 57.8749 50.2312C58.2823 50.3993 58.6644 50.6617 59.0212 51.0185C59.3803 51.3775 59.6346 51.7631 59.7842 52.1751C59.9362 52.5848 59.9707 52.9853 59.8878 53.3766C59.8073 53.7702 59.6162 54.1178 59.3147 54.4193L58.2789 53.3835C58.5091 53.1534 58.6149 52.9025 58.5965 52.6308C58.5804 52.3569 58.4412 52.0888 58.1788 51.8264C57.9256 51.5732 57.6747 51.4305 57.4261 51.3982C57.1798 51.3637 56.9692 51.4339 56.7942 51.6089C56.6308 51.7723 56.5756 51.991 56.6285 52.2649C56.6837 52.5411 56.823 52.8875 57.0463 53.3041C57.4583 54.0706 57.6678 54.7197 57.6747 55.2514C57.6816 55.7831 57.4894 56.2446 57.0981 56.6359C56.663 57.071 56.1566 57.2482 55.5789 57.1677C55.0034 57.0848 54.4372 56.7648 53.8802 56.2078C53.4935 55.8211 53.2115 55.3987 53.0343 54.9407C52.8593 54.4803 52.811 54.043 52.8893 53.6287C52.9698 53.2167 53.1724 52.8484 53.4969 52.5238L54.5362 53.5631C53.9815 54.1178 54.0355 54.7266 54.6985 55.3895C54.9448 55.6358 55.1864 55.7785 55.4235 55.8177C55.6629 55.8545 55.8724 55.7831 56.0519 55.6036ZM65.1559 58.9693L63.616 57.4294L59.4279 61.6175L58.3921 60.5817L62.5802 56.3936L61.061 54.8744L61.9 54.0354L65.9949 58.1303L65.1559 58.9693ZM34.9229 50.5406L33.1517 52.3118L32.1159 51.276L37.143 46.2489L39.1041 48.2101C39.4816 48.5875 39.744 48.9881 39.8913 49.4116C40.041 49.8374 40.0651 50.2552 39.9638 50.6649C39.8649 51.0723 39.6531 51.4383 39.3286 51.7628C38.836 52.2554 38.2778 52.4752 37.654 52.4223C37.0348 52.3694 36.4272 52.0448 35.831 51.4487L34.9229 50.5406ZM35.7619 49.7016L36.6873 50.6269C36.9612 50.9008 37.2339 51.0447 37.5055 51.0585C37.7795 51.0746 38.0361 50.963 38.2755 50.7236C38.5218 50.4773 38.6484 50.2057 38.6553 49.9088C38.6622 49.6118 38.5402 49.3333 38.2893 49.0732L37.3398 48.1237L35.7619 49.7016ZM41.0887 56.5683L40.2635 55.7431L38.4233 57.5834L37.3875 56.5476L42.4146 51.5205L44.2824 53.3884C44.8763 53.9822 45.202 54.5726 45.2596 55.1596C45.3171 55.7465 45.1042 56.2817 44.6208 56.7651C44.2778 57.108 43.9165 57.3198 43.5367 57.4004C43.1615 57.4809 42.7552 57.4383 42.3179 57.2726L41.3511 60.4145L41.3028 60.4629L40.191 59.3511L41.0887 56.5683ZM41.1025 54.9041L41.9381 55.7396C42.1982 55.9997 42.4652 56.1355 42.7391 56.147C43.0153 56.1563 43.2697 56.0446 43.5021 55.8121C43.7392 55.5751 43.8578 55.3207 43.8578 55.0491C43.8601 54.7798 43.722 54.5059 43.4434 54.2274L42.6114 53.3953L41.1025 54.9041ZM43.7121 62.8722L42.6763 61.8364L47.7034 56.8093L48.7392 57.8451L43.7121 62.8722ZM51.0034 66.8144C50.4234 67.3162 49.7973 67.5418 49.1252 67.4911C48.4553 67.4428 47.8258 67.124 47.2366 66.5348C46.5921 65.8903 46.3009 65.1663 46.363 64.363C46.4298 63.5597 46.8418 62.7794 47.5991 62.0221L47.9064 61.7148C48.3897 61.2314 48.9007 60.8908 49.4394 60.6928C49.978 60.4949 50.5028 60.4557 51.0138 60.5754C51.5294 60.6951 51.9966 60.9644 52.4156 61.3834C52.9956 61.9634 53.3075 62.586 53.3512 63.2513C53.395 63.9165 53.1636 64.5575 52.6572 65.1744L51.6214 64.1386C51.9207 63.7887 52.0645 63.463 52.053 63.1615C52.0461 62.86 51.8838 62.5504 51.5662 62.2327C51.2209 61.8875 50.8377 61.7528 50.4165 61.8288C49.9998 61.9047 49.5291 62.2005 49.0043 62.7161L48.6245 63.0959C48.0813 63.6391 47.766 64.1179 47.6785 64.5322C47.5933 64.9488 47.728 65.3344 48.0825 65.6888C48.4024 66.0088 48.7131 66.1745 49.0147 66.186C49.3208 66.1975 49.6385 66.0617 49.9676 65.7786L51.0034 66.8144ZM55.9193 70.7221L53.9306 68.7334L52.584 70.08L54.918 72.414L54.086 73.246L50.7162 69.8762L55.7432 64.8492L59.1061 68.2121L58.2671 69.0511L55.94 66.724L54.742 67.922L56.7307 69.9108L55.9193 70.7221Z" fill="white"/>
</svg>
